<mxfile host="Electron" modified="2024-03-04T04:54:07.582Z" agent="Mozilla/5.0 (Macintosh; Intel Mac OS X 10_15_7) AppleWebKit/537.36 (KHTML, like Gecko) draw.io/23.1.5 Chrome/120.0.6099.109 Electron/28.1.0 Safari/537.36" etag="ueCdQ6V4eV5dOOwFFx6s" version="23.1.5" type="device">
  <diagram name="Page-1" id="6WeBLrzSWIBbhQxHIakJ">
    <mxGraphModel dx="1567" dy="1538" grid="1" gridSize="10" guides="1" tooltips="1" connect="1" arrows="1" fold="1" page="1" pageScale="1" pageWidth="1100" pageHeight="1700" math="0" shadow="0">
      <root>
        <mxCell id="0" />
        <mxCell id="1" parent="0" />
        <mxCell id="ZF5UAmcNSKmpuMnHTkLK-9" style="edgeStyle=orthogonalEdgeStyle;rounded=0;orthogonalLoop=1;jettySize=auto;html=1;exitX=1;exitY=1;exitDx=0;exitDy=0;entryX=0.6;entryY=0;entryDx=0;entryDy=0;startArrow=ERzeroToMany;startFill=0;endArrow=ERzeroToMany;endFill=0;entryPerimeter=0;" edge="1" parent="1" source="ZF5UAmcNSKmpuMnHTkLK-7" target="ZF5UAmcNSKmpuMnHTkLK-8">
          <mxGeometry relative="1" as="geometry">
            <Array as="points">
              <mxPoint x="290" y="60" />
            </Array>
          </mxGeometry>
        </mxCell>
        <mxCell id="ZF5UAmcNSKmpuMnHTkLK-11" style="edgeStyle=orthogonalEdgeStyle;rounded=0;orthogonalLoop=1;jettySize=auto;html=1;exitX=1;exitY=0.5;exitDx=0;exitDy=0;startArrow=ERoneToMany;startFill=0;endArrow=ERzeroToMany;endFill=0;entryX=0;entryY=0.5;entryDx=0;entryDy=0;" edge="1" parent="1" source="ZF5UAmcNSKmpuMnHTkLK-7" target="ZF5UAmcNSKmpuMnHTkLK-24">
          <mxGeometry relative="1" as="geometry">
            <mxPoint x="300" y="40" as="targetPoint" />
          </mxGeometry>
        </mxCell>
        <mxCell id="ZF5UAmcNSKmpuMnHTkLK-15" style="edgeStyle=orthogonalEdgeStyle;rounded=0;orthogonalLoop=1;jettySize=auto;html=1;entryX=0.75;entryY=0;entryDx=0;entryDy=0;startArrow=ERzeroToMany;startFill=0;endArrow=ERzeroToMany;endFill=0;exitX=0.75;exitY=1;exitDx=0;exitDy=0;" edge="1" parent="1" source="ZF5UAmcNSKmpuMnHTkLK-7" target="ZF5UAmcNSKmpuMnHTkLK-14">
          <mxGeometry relative="1" as="geometry">
            <mxPoint x="140" y="60" as="sourcePoint" />
            <Array as="points">
              <mxPoint x="185" y="105" />
              <mxPoint x="245" y="105" />
            </Array>
          </mxGeometry>
        </mxCell>
        <mxCell id="ZF5UAmcNSKmpuMnHTkLK-7" value="Site" style="whiteSpace=wrap;html=1;align=center;" vertex="1" parent="1">
          <mxGeometry x="110" y="20" width="100" height="40" as="geometry" />
        </mxCell>
        <mxCell id="ZF5UAmcNSKmpuMnHTkLK-18" style="edgeStyle=orthogonalEdgeStyle;rounded=0;orthogonalLoop=1;jettySize=auto;html=1;entryX=0;entryY=0.5;entryDx=0;entryDy=0;endArrow=none;endFill=0;exitX=1;exitY=0;exitDx=0;exitDy=0;exitPerimeter=0;" edge="1" parent="1" source="ZF5UAmcNSKmpuMnHTkLK-8" target="ZF5UAmcNSKmpuMnHTkLK-17">
          <mxGeometry relative="1" as="geometry">
            <mxPoint x="230" y="340" as="sourcePoint" />
            <Array as="points">
              <mxPoint x="350" y="270" />
              <mxPoint x="350" y="140" />
            </Array>
          </mxGeometry>
        </mxCell>
        <mxCell id="ZF5UAmcNSKmpuMnHTkLK-20" style="edgeStyle=orthogonalEdgeStyle;rounded=0;orthogonalLoop=1;jettySize=auto;html=1;exitX=1;exitY=0.25;exitDx=0;exitDy=0;entryX=0;entryY=0.5;entryDx=0;entryDy=0;startArrow=ERzeroToMany;startFill=0;endArrow=ERoneToMany;endFill=0;" edge="1" parent="1" source="ZF5UAmcNSKmpuMnHTkLK-8" target="ZF5UAmcNSKmpuMnHTkLK-19">
          <mxGeometry relative="1" as="geometry">
            <Array as="points">
              <mxPoint x="370" y="280" />
              <mxPoint x="370" y="210" />
            </Array>
          </mxGeometry>
        </mxCell>
        <mxCell id="ZF5UAmcNSKmpuMnHTkLK-22" style="edgeStyle=orthogonalEdgeStyle;rounded=0;orthogonalLoop=1;jettySize=auto;html=1;exitX=1;exitY=0.5;exitDx=0;exitDy=0;startArrow=ERmandOne;startFill=0;endArrow=ERzeroToOne;endFill=0;entryX=0.5;entryY=1;entryDx=0;entryDy=0;" edge="1" parent="1" source="ZF5UAmcNSKmpuMnHTkLK-8" target="ZF5UAmcNSKmpuMnHTkLK-23">
          <mxGeometry relative="1" as="geometry">
            <mxPoint x="489" y="290" as="targetPoint" />
            <Array as="points">
              <mxPoint x="489" y="290" />
            </Array>
          </mxGeometry>
        </mxCell>
        <mxCell id="ZF5UAmcNSKmpuMnHTkLK-28" style="edgeStyle=orthogonalEdgeStyle;rounded=0;orthogonalLoop=1;jettySize=auto;html=1;exitX=1;exitY=0.75;exitDx=0;exitDy=0;entryX=0;entryY=0.5;entryDx=0;entryDy=0;startArrow=ERzeroToMany;startFill=0;endArrow=ERzeroToMany;endFill=0;" edge="1" parent="1" source="ZF5UAmcNSKmpuMnHTkLK-8" target="ZF5UAmcNSKmpuMnHTkLK-26">
          <mxGeometry relative="1" as="geometry" />
        </mxCell>
        <mxCell id="ZF5UAmcNSKmpuMnHTkLK-29" style="edgeStyle=orthogonalEdgeStyle;rounded=0;orthogonalLoop=1;jettySize=auto;html=1;exitX=1;exitY=1;exitDx=0;exitDy=0;entryX=0;entryY=0.5;entryDx=0;entryDy=0;startArrow=ERzeroToMany;startFill=0;endArrow=ERzeroToMany;endFill=0;exitPerimeter=0;" edge="1" parent="1" source="ZF5UAmcNSKmpuMnHTkLK-8" target="ZF5UAmcNSKmpuMnHTkLK-27">
          <mxGeometry relative="1" as="geometry" />
        </mxCell>
        <mxCell id="ZF5UAmcNSKmpuMnHTkLK-34" style="edgeStyle=orthogonalEdgeStyle;rounded=0;orthogonalLoop=1;jettySize=auto;html=1;exitX=0.6;exitY=1;exitDx=0;exitDy=0;entryX=0;entryY=0.5;entryDx=0;entryDy=0;startArrow=ERzeroToMany;startFill=0;endArrow=ERzeroToMany;endFill=0;exitPerimeter=0;" edge="1" parent="1" source="ZF5UAmcNSKmpuMnHTkLK-8" target="ZF5UAmcNSKmpuMnHTkLK-33">
          <mxGeometry relative="1" as="geometry" />
        </mxCell>
        <mxCell id="ZF5UAmcNSKmpuMnHTkLK-38" style="edgeStyle=orthogonalEdgeStyle;rounded=0;orthogonalLoop=1;jettySize=auto;html=1;exitX=0.4;exitY=1;exitDx=0;exitDy=0;exitPerimeter=0;entryX=0;entryY=0.5;entryDx=0;entryDy=0;endArrow=ERzeroToMany;endFill=0;startArrow=ERzeroToMany;startFill=0;" edge="1" parent="1" source="ZF5UAmcNSKmpuMnHTkLK-8" target="ZF5UAmcNSKmpuMnHTkLK-37">
          <mxGeometry relative="1" as="geometry" />
        </mxCell>
        <mxCell id="ZF5UAmcNSKmpuMnHTkLK-45" style="edgeStyle=orthogonalEdgeStyle;rounded=0;orthogonalLoop=1;jettySize=auto;html=1;exitX=0.2;exitY=1;exitDx=0;exitDy=0;exitPerimeter=0;entryX=0;entryY=0.5;entryDx=0;entryDy=0;startArrow=ERzeroToMany;startFill=0;endArrow=ERzeroToMany;endFill=0;" edge="1" parent="1" source="ZF5UAmcNSKmpuMnHTkLK-8" target="ZF5UAmcNSKmpuMnHTkLK-39">
          <mxGeometry relative="1" as="geometry">
            <mxPoint x="280" y="640" as="targetPoint" />
          </mxGeometry>
        </mxCell>
        <mxCell id="ZF5UAmcNSKmpuMnHTkLK-51" style="edgeStyle=orthogonalEdgeStyle;rounded=0;orthogonalLoop=1;jettySize=auto;html=1;exitX=0;exitY=1;exitDx=0;exitDy=0;exitPerimeter=0;entryX=0;entryY=0.5;entryDx=0;entryDy=0;startArrow=ERzeroToMany;startFill=0;endArrow=ERzeroToMany;endFill=0;" edge="1" parent="1" source="ZF5UAmcNSKmpuMnHTkLK-8" target="ZF5UAmcNSKmpuMnHTkLK-50">
          <mxGeometry relative="1" as="geometry">
            <Array as="points">
              <mxPoint x="210" y="310" />
              <mxPoint x="210" y="1050" />
            </Array>
          </mxGeometry>
        </mxCell>
        <mxCell id="ZF5UAmcNSKmpuMnHTkLK-53" style="edgeStyle=orthogonalEdgeStyle;rounded=0;orthogonalLoop=1;jettySize=auto;html=1;entryX=0;entryY=0.5;entryDx=0;entryDy=0;endArrow=ERzeroToMany;endFill=0;startArrow=ERzeroToMany;startFill=0;exitX=0;exitY=0.75;exitDx=0;exitDy=0;exitPerimeter=0;" edge="1" parent="1" source="ZF5UAmcNSKmpuMnHTkLK-8" target="ZF5UAmcNSKmpuMnHTkLK-52">
          <mxGeometry relative="1" as="geometry">
            <mxPoint x="230" y="270" as="sourcePoint" />
            <mxPoint x="230" y="730" as="targetPoint" />
            <Array as="points">
              <mxPoint x="190" y="300" />
              <mxPoint x="190" y="1110" />
            </Array>
          </mxGeometry>
        </mxCell>
        <mxCell id="ZF5UAmcNSKmpuMnHTkLK-55" style="edgeStyle=orthogonalEdgeStyle;rounded=0;orthogonalLoop=1;jettySize=auto;html=1;exitX=0;exitY=0.5;exitDx=0;exitDy=0;exitPerimeter=0;entryX=0;entryY=0.5;entryDx=0;entryDy=0;startArrow=ERzeroToMany;startFill=0;endArrow=ERzeroToMany;endFill=0;" edge="1" parent="1" source="ZF5UAmcNSKmpuMnHTkLK-8" target="ZF5UAmcNSKmpuMnHTkLK-54">
          <mxGeometry relative="1" as="geometry">
            <Array as="points">
              <mxPoint x="170" y="290" />
              <mxPoint x="170" y="1170" />
            </Array>
          </mxGeometry>
        </mxCell>
        <mxCell id="ZF5UAmcNSKmpuMnHTkLK-8" value="Site record" style="whiteSpace=wrap;html=1;align=center;points=[[0,0,0,0,0],[0,0.25,0,0,0],[0,0.5,0,0,0],[0,0.75,0,0,0],[0,1,0,0,0],[0.2,0,0,0,0],[0.2,1,0,0,0],[0.4,0,0,0,0],[0.4,1,0,0,0],[0.6,0,0,0,0],[0.6,1,0,0,0],[0.8,0,0,0,0],[0.8,1,0,0,0],[1,0,0,0,0],[1,0.25,0,0,0],[1,0.5,0,0,0],[1,0.75,0,0,0],[1,1,0,0,0]];" vertex="1" parent="1">
          <mxGeometry x="230" y="270" width="100" height="40" as="geometry" />
        </mxCell>
        <mxCell id="ZF5UAmcNSKmpuMnHTkLK-13" style="edgeStyle=orthogonalEdgeStyle;rounded=0;orthogonalLoop=1;jettySize=auto;html=1;exitX=0.25;exitY=1;exitDx=0;exitDy=0;startArrow=ERzeroToMany;startFill=0;endArrow=ERoneToMany;endFill=0;" edge="1" parent="1" source="ZF5UAmcNSKmpuMnHTkLK-24">
          <mxGeometry relative="1" as="geometry">
            <mxPoint x="325" y="60" as="sourcePoint" />
            <mxPoint x="320" y="270" as="targetPoint" />
            <Array as="points">
              <mxPoint x="330" y="150" />
              <mxPoint x="320" y="150" />
              <mxPoint x="320" y="270" />
            </Array>
          </mxGeometry>
        </mxCell>
        <mxCell id="ZF5UAmcNSKmpuMnHTkLK-16" style="edgeStyle=orthogonalEdgeStyle;rounded=0;orthogonalLoop=1;jettySize=auto;html=1;exitX=0.5;exitY=1;exitDx=0;exitDy=0;startArrow=ERzeroToMany;startFill=0;endArrow=ERzeroToMany;endFill=0;entryX=0.4;entryY=0;entryDx=0;entryDy=0;entryPerimeter=0;" edge="1" parent="1" source="ZF5UAmcNSKmpuMnHTkLK-14" target="ZF5UAmcNSKmpuMnHTkLK-8">
          <mxGeometry relative="1" as="geometry">
            <mxPoint x="270" y="260" as="targetPoint" />
          </mxGeometry>
        </mxCell>
        <mxCell id="ZF5UAmcNSKmpuMnHTkLK-101" style="edgeStyle=orthogonalEdgeStyle;rounded=0;orthogonalLoop=1;jettySize=auto;html=1;exitX=1;exitY=0.75;exitDx=0;exitDy=0;entryX=0.25;entryY=0;entryDx=0;entryDy=0;endArrow=ERzeroToOne;endFill=0;startArrow=ERzeroToMany;startFill=0;" edge="1" parent="1" source="ZF5UAmcNSKmpuMnHTkLK-14" target="ZF5UAmcNSKmpuMnHTkLK-100">
          <mxGeometry relative="1" as="geometry" />
        </mxCell>
        <mxCell id="ZF5UAmcNSKmpuMnHTkLK-14" value="County" style="whiteSpace=wrap;html=1;align=center;" vertex="1" parent="1">
          <mxGeometry x="170" y="140" width="100" height="40" as="geometry" />
        </mxCell>
        <mxCell id="ZF5UAmcNSKmpuMnHTkLK-17" value="privacy_setting" style="ellipse;whiteSpace=wrap;html=1;align=center;" vertex="1" parent="1">
          <mxGeometry x="440" y="120" width="100" height="40" as="geometry" />
        </mxCell>
        <mxCell id="ZF5UAmcNSKmpuMnHTkLK-19" value="USGS quad" style="whiteSpace=wrap;html=1;align=center;" vertex="1" parent="1">
          <mxGeometry x="440" y="190" width="100" height="40" as="geometry" />
        </mxCell>
        <mxCell id="ZF5UAmcNSKmpuMnHTkLK-110" style="edgeStyle=orthogonalEdgeStyle;rounded=0;orthogonalLoop=1;jettySize=auto;html=1;exitX=0.75;exitY=1;exitDx=0;exitDy=0;entryX=1;entryY=0.5;entryDx=0;entryDy=0;endArrow=none;endFill=0;" edge="1" parent="1" source="ZF5UAmcNSKmpuMnHTkLK-23" target="ZF5UAmcNSKmpuMnHTkLK-109">
          <mxGeometry relative="1" as="geometry" />
        </mxCell>
        <mxCell id="ZF5UAmcNSKmpuMnHTkLK-23" value="Site description" style="shape=ext;margin=3;double=1;whiteSpace=wrap;html=1;align=center;" vertex="1" parent="1">
          <mxGeometry x="439" y="240" width="100" height="40" as="geometry" />
        </mxCell>
        <mxCell id="ZF5UAmcNSKmpuMnHTkLK-99" style="edgeStyle=orthogonalEdgeStyle;rounded=0;orthogonalLoop=1;jettySize=auto;html=1;exitX=1;exitY=0.5;exitDx=0;exitDy=0;entryX=0.5;entryY=0;entryDx=0;entryDy=0;endArrow=none;endFill=0;" edge="1" parent="1" source="ZF5UAmcNSKmpuMnHTkLK-24" target="ZF5UAmcNSKmpuMnHTkLK-98">
          <mxGeometry relative="1" as="geometry">
            <mxPoint x="419.9999999999998" as="targetPoint" />
            <Array as="points">
              <mxPoint x="420" y="40" />
              <mxPoint x="420" y="10" />
              <mxPoint x="600" y="10" />
            </Array>
          </mxGeometry>
        </mxCell>
        <mxCell id="ZF5UAmcNSKmpuMnHTkLK-24" value="Site identifier" style="shape=ext;margin=3;double=1;whiteSpace=wrap;html=1;align=center;" vertex="1" parent="1">
          <mxGeometry x="305" y="20" width="100" height="40" as="geometry" />
        </mxCell>
        <mxCell id="ZF5UAmcNSKmpuMnHTkLK-26" value="Resource code" style="whiteSpace=wrap;html=1;align=center;" vertex="1" parent="1">
          <mxGeometry x="390" y="500" width="100" height="40" as="geometry" />
        </mxCell>
        <mxCell id="ZF5UAmcNSKmpuMnHTkLK-27" value="Resource type" style="whiteSpace=wrap;html=1;align=center;" vertex="1" parent="1">
          <mxGeometry x="390" y="560" width="100" height="40" as="geometry" />
        </mxCell>
        <mxCell id="ZF5UAmcNSKmpuMnHTkLK-42" style="edgeStyle=orthogonalEdgeStyle;rounded=0;orthogonalLoop=1;jettySize=auto;html=1;exitX=0.25;exitY=0;exitDx=0;exitDy=0;entryX=1;entryY=0.5;entryDx=0;entryDy=0;startArrow=ERzeroToMany;startFill=0;endArrow=ERzeroToMany;endFill=0;" edge="1" parent="1" source="ZF5UAmcNSKmpuMnHTkLK-33" target="ZF5UAmcNSKmpuMnHTkLK-39">
          <mxGeometry relative="1" as="geometry">
            <Array as="points">
              <mxPoint x="415" y="660" />
              <mxPoint x="510" y="660" />
              <mxPoint x="510" y="860" />
            </Array>
          </mxGeometry>
        </mxCell>
        <mxCell id="ZF5UAmcNSKmpuMnHTkLK-33" value="Owner" style="whiteSpace=wrap;html=1;align=center;" vertex="1" parent="1">
          <mxGeometry x="390" y="700" width="100" height="40" as="geometry" />
        </mxCell>
        <mxCell id="ZF5UAmcNSKmpuMnHTkLK-41" style="edgeStyle=orthogonalEdgeStyle;rounded=0;orthogonalLoop=1;jettySize=auto;html=1;exitX=0;exitY=0.75;exitDx=0;exitDy=0;entryX=0;entryY=0.25;entryDx=0;entryDy=0;startArrow=ERzeroToMany;startFill=0;endArrow=ERzeroToMany;endFill=0;" edge="1" parent="1" source="ZF5UAmcNSKmpuMnHTkLK-37" target="ZF5UAmcNSKmpuMnHTkLK-39">
          <mxGeometry relative="1" as="geometry">
            <Array as="points">
              <mxPoint x="360" y="800" />
              <mxPoint x="360" y="850" />
            </Array>
          </mxGeometry>
        </mxCell>
        <mxCell id="ZF5UAmcNSKmpuMnHTkLK-43" style="edgeStyle=orthogonalEdgeStyle;rounded=0;orthogonalLoop=1;jettySize=auto;html=1;exitX=1;exitY=1;exitDx=0;exitDy=0;entryX=0;entryY=1;entryDx=0;entryDy=0;startArrow=ERzeroToMany;startFill=0;endArrow=ERzeroToOne;endFill=0;" edge="1" parent="1" source="ZF5UAmcNSKmpuMnHTkLK-37" target="ZF5UAmcNSKmpuMnHTkLK-40">
          <mxGeometry relative="1" as="geometry">
            <Array as="points">
              <mxPoint x="600" y="810" />
              <mxPoint x="600" y="810" />
            </Array>
          </mxGeometry>
        </mxCell>
        <mxCell id="ZF5UAmcNSKmpuMnHTkLK-37" value="Recorder" style="whiteSpace=wrap;html=1;align=center;" vertex="1" parent="1">
          <mxGeometry x="390" y="770" width="100" height="40" as="geometry" />
        </mxCell>
        <mxCell id="ZF5UAmcNSKmpuMnHTkLK-39" value="Address" style="whiteSpace=wrap;html=1;align=center;" vertex="1" parent="1">
          <mxGeometry x="390" y="840" width="100" height="40" as="geometry" />
        </mxCell>
        <mxCell id="ZF5UAmcNSKmpuMnHTkLK-157" style="edgeStyle=orthogonalEdgeStyle;rounded=0;orthogonalLoop=1;jettySize=auto;html=1;exitX=1;exitY=0.5;exitDx=0;exitDy=0;entryX=1;entryY=0.5;entryDx=0;entryDy=0;endArrow=none;endFill=0;" edge="1" parent="1" source="ZF5UAmcNSKmpuMnHTkLK-40" target="ZF5UAmcNSKmpuMnHTkLK-156">
          <mxGeometry relative="1" as="geometry" />
        </mxCell>
        <mxCell id="ZF5UAmcNSKmpuMnHTkLK-40" value="Affiliation" style="whiteSpace=wrap;html=1;align=center;" vertex="1" parent="1">
          <mxGeometry x="700" y="770" width="100" height="40" as="geometry" />
        </mxCell>
        <mxCell id="ZF5UAmcNSKmpuMnHTkLK-49" style="edgeStyle=orthogonalEdgeStyle;rounded=0;orthogonalLoop=1;jettySize=auto;html=1;exitX=0.5;exitY=1;exitDx=0;exitDy=0;entryX=0.5;entryY=0;entryDx=0;entryDy=0;startArrow=ERzeroToMany;startFill=0;endArrow=ERzeroToMany;endFill=0;" edge="1" parent="1" source="ZF5UAmcNSKmpuMnHTkLK-48" target="ZF5UAmcNSKmpuMnHTkLK-40">
          <mxGeometry relative="1" as="geometry" />
        </mxCell>
        <mxCell id="ZF5UAmcNSKmpuMnHTkLK-88" style="edgeStyle=orthogonalEdgeStyle;rounded=0;orthogonalLoop=1;jettySize=auto;html=1;exitX=1;exitY=0.5;exitDx=0;exitDy=0;entryX=0;entryY=0.5;entryDx=0;entryDy=0;startArrow=ERone;startFill=0;endArrow=ERzeroToOne;endFill=0;" edge="1" parent="1" source="ZF5UAmcNSKmpuMnHTkLK-48" target="ZF5UAmcNSKmpuMnHTkLK-69">
          <mxGeometry relative="1" as="geometry" />
        </mxCell>
        <mxCell id="ZF5UAmcNSKmpuMnHTkLK-216" style="edgeStyle=orthogonalEdgeStyle;rounded=0;orthogonalLoop=1;jettySize=auto;html=1;exitX=0;exitY=0.5;exitDx=0;exitDy=0;entryX=0;entryY=1;entryDx=0;entryDy=0;endArrow=ERzeroToOne;endFill=0;startArrow=ERzeroToMany;startFill=0;" edge="1" parent="1" source="ZF5UAmcNSKmpuMnHTkLK-48" target="ZF5UAmcNSKmpuMnHTkLK-100">
          <mxGeometry relative="1" as="geometry">
            <Array as="points">
              <mxPoint x="680" y="650" />
              <mxPoint x="680" y="250" />
            </Array>
          </mxGeometry>
        </mxCell>
        <mxCell id="ZF5UAmcNSKmpuMnHTkLK-48" value="User" style="whiteSpace=wrap;html=1;align=center;" vertex="1" parent="1">
          <mxGeometry x="700" y="630" width="100" height="40" as="geometry" />
        </mxCell>
        <mxCell id="ZF5UAmcNSKmpuMnHTkLK-50" value="Survey type" style="whiteSpace=wrap;html=1;align=center;" vertex="1" parent="1">
          <mxGeometry x="220" y="1030" width="100" height="40" as="geometry" />
        </mxCell>
        <mxCell id="ZF5UAmcNSKmpuMnHTkLK-52" value="Report citations" style="whiteSpace=wrap;html=1;align=center;" vertex="1" parent="1">
          <mxGeometry x="220" y="1090" width="100" height="40" as="geometry" />
        </mxCell>
        <mxCell id="ZF5UAmcNSKmpuMnHTkLK-54" value="Attachment" style="whiteSpace=wrap;html=1;align=center;" vertex="1" parent="1">
          <mxGeometry x="380" y="1150" width="100" height="40" as="geometry" />
        </mxCell>
        <mxCell id="ZF5UAmcNSKmpuMnHTkLK-68" style="edgeStyle=orthogonalEdgeStyle;rounded=0;orthogonalLoop=1;jettySize=auto;html=1;exitX=0.5;exitY=1;exitDx=0;exitDy=0;entryX=0.5;entryY=0;entryDx=0;entryDy=0;startArrow=ERone;startFill=0;endArrow=ERone;endFill=0;" edge="1" parent="1" source="ZF5UAmcNSKmpuMnHTkLK-57" target="ZF5UAmcNSKmpuMnHTkLK-63">
          <mxGeometry relative="1" as="geometry" />
        </mxCell>
        <mxCell id="ZF5UAmcNSKmpuMnHTkLK-57" value="Map" style="whiteSpace=wrap;html=1;align=center;" vertex="1" parent="1">
          <mxGeometry x="220" y="1210" width="100" height="40" as="geometry" />
        </mxCell>
        <mxCell id="ZF5UAmcNSKmpuMnHTkLK-58" style="edgeStyle=orthogonalEdgeStyle;rounded=0;orthogonalLoop=1;jettySize=auto;html=1;exitX=0;exitY=0.5;exitDx=0;exitDy=0;entryX=0;entryY=0.25;entryDx=0;entryDy=0;entryPerimeter=0;startArrow=ERzeroToMany;startFill=0;endArrow=ERzeroToMany;endFill=0;" edge="1" parent="1" source="ZF5UAmcNSKmpuMnHTkLK-57" target="ZF5UAmcNSKmpuMnHTkLK-8">
          <mxGeometry relative="1" as="geometry">
            <Array as="points">
              <mxPoint x="150" y="1230" />
              <mxPoint x="150" y="280" />
            </Array>
          </mxGeometry>
        </mxCell>
        <mxCell id="ZF5UAmcNSKmpuMnHTkLK-61" value="site_record_id" style="ellipse;whiteSpace=wrap;html=1;align=center;fontStyle=4;" vertex="1" parent="1">
          <mxGeometry x="440" y="70" width="100" height="40" as="geometry" />
        </mxCell>
        <mxCell id="ZF5UAmcNSKmpuMnHTkLK-62" style="edgeStyle=orthogonalEdgeStyle;rounded=0;orthogonalLoop=1;jettySize=auto;html=1;exitX=0;exitY=0.5;exitDx=0;exitDy=0;entryX=1;entryY=0;entryDx=0;entryDy=0;entryPerimeter=0;endArrow=none;endFill=0;" edge="1" parent="1" source="ZF5UAmcNSKmpuMnHTkLK-61" target="ZF5UAmcNSKmpuMnHTkLK-8">
          <mxGeometry relative="1" as="geometry">
            <Array as="points">
              <mxPoint x="350" y="90" />
              <mxPoint x="350" y="270" />
            </Array>
          </mxGeometry>
        </mxCell>
        <mxCell id="ZF5UAmcNSKmpuMnHTkLK-66" style="edgeStyle=orthogonalEdgeStyle;rounded=0;orthogonalLoop=1;jettySize=auto;html=1;exitX=0;exitY=1;exitDx=0;exitDy=0;entryX=0.75;entryY=0;entryDx=0;entryDy=0;startArrow=ERmandOne;startFill=0;endArrow=ERone;endFill=0;" edge="1" parent="1" source="ZF5UAmcNSKmpuMnHTkLK-63" target="ZF5UAmcNSKmpuMnHTkLK-64">
          <mxGeometry relative="1" as="geometry" />
        </mxCell>
        <mxCell id="ZF5UAmcNSKmpuMnHTkLK-67" style="edgeStyle=orthogonalEdgeStyle;rounded=0;orthogonalLoop=1;jettySize=auto;html=1;exitX=1;exitY=1;exitDx=0;exitDy=0;entryX=0.25;entryY=0;entryDx=0;entryDy=0;startArrow=ERmandOne;startFill=0;endArrow=ERone;endFill=0;" edge="1" parent="1" source="ZF5UAmcNSKmpuMnHTkLK-63" target="ZF5UAmcNSKmpuMnHTkLK-65">
          <mxGeometry relative="1" as="geometry" />
        </mxCell>
        <mxCell id="ZF5UAmcNSKmpuMnHTkLK-63" value="ISA" style="shape=rhombus;perimeter=rhombusPerimeter;whiteSpace=wrap;html=1;align=center;" vertex="1" parent="1">
          <mxGeometry x="210" y="1290" width="120" height="60" as="geometry" />
        </mxCell>
        <mxCell id="ZF5UAmcNSKmpuMnHTkLK-64" value="Sketch map" style="shape=ext;margin=3;double=1;whiteSpace=wrap;html=1;align=center;" vertex="1" parent="1">
          <mxGeometry x="150" y="1360" width="100" height="40" as="geometry" />
        </mxCell>
        <mxCell id="ZF5UAmcNSKmpuMnHTkLK-65" value="Location map" style="shape=ext;margin=3;double=1;whiteSpace=wrap;html=1;align=center;" vertex="1" parent="1">
          <mxGeometry x="290" y="1360" width="100" height="40" as="geometry" />
        </mxCell>
        <mxCell id="ZF5UAmcNSKmpuMnHTkLK-69" value="Account" style="shape=ext;margin=3;double=1;whiteSpace=wrap;html=1;align=center;" vertex="1" parent="1">
          <mxGeometry x="881" y="630" width="100" height="40" as="geometry" />
        </mxCell>
        <mxCell id="ZF5UAmcNSKmpuMnHTkLK-70" value="Shape file" style="shape=ext;margin=3;double=1;whiteSpace=wrap;html=1;align=center;" vertex="1" parent="1">
          <mxGeometry x="20" y="530" width="100" height="40" as="geometry" />
        </mxCell>
        <mxCell id="ZF5UAmcNSKmpuMnHTkLK-71" value="Photo" style="whiteSpace=wrap;html=1;align=center;" vertex="1" parent="1">
          <mxGeometry x="20" y="1090" width="100" height="40" as="geometry" />
        </mxCell>
        <mxCell id="ZF5UAmcNSKmpuMnHTkLK-72" style="edgeStyle=orthogonalEdgeStyle;rounded=0;orthogonalLoop=1;jettySize=auto;html=1;exitX=1;exitY=0.5;exitDx=0;exitDy=0;entryX=0;entryY=0;entryDx=0;entryDy=0;entryPerimeter=0;startArrow=ERzeroToMany;startFill=0;endArrow=ERzeroToOne;endFill=0;" edge="1" parent="1" source="ZF5UAmcNSKmpuMnHTkLK-71" target="ZF5UAmcNSKmpuMnHTkLK-8">
          <mxGeometry relative="1" as="geometry">
            <Array as="points">
              <mxPoint x="130" y="1110" />
              <mxPoint x="130" y="270" />
            </Array>
          </mxGeometry>
        </mxCell>
        <mxCell id="ZF5UAmcNSKmpuMnHTkLK-73" style="edgeStyle=orthogonalEdgeStyle;rounded=0;orthogonalLoop=1;jettySize=auto;html=1;entryX=0.2;entryY=0;entryDx=0;entryDy=0;entryPerimeter=0;startArrow=ERzeroToMany;startFill=0;endArrow=ERone;endFill=0;" edge="1" parent="1" target="ZF5UAmcNSKmpuMnHTkLK-8">
          <mxGeometry relative="1" as="geometry">
            <mxPoint x="120" y="530" as="sourcePoint" />
            <Array as="points">
              <mxPoint x="120" y="530" />
              <mxPoint x="120" y="260" />
              <mxPoint x="250" y="260" />
            </Array>
          </mxGeometry>
        </mxCell>
        <mxCell id="ZF5UAmcNSKmpuMnHTkLK-75" style="edgeStyle=orthogonalEdgeStyle;rounded=0;orthogonalLoop=1;jettySize=auto;html=1;exitX=0;exitY=0.5;exitDx=0;exitDy=0;endArrow=none;endFill=0;" edge="1" parent="1" source="ZF5UAmcNSKmpuMnHTkLK-74" target="ZF5UAmcNSKmpuMnHTkLK-57">
          <mxGeometry relative="1" as="geometry" />
        </mxCell>
        <mxCell id="ZF5UAmcNSKmpuMnHTkLK-74" value="map_id" style="ellipse;whiteSpace=wrap;html=1;align=center;fontStyle=4;" vertex="1" parent="1">
          <mxGeometry x="380" y="1210" width="100" height="40" as="geometry" />
        </mxCell>
        <mxCell id="ZF5UAmcNSKmpuMnHTkLK-77" style="edgeStyle=orthogonalEdgeStyle;rounded=0;orthogonalLoop=1;jettySize=auto;html=1;entryX=1;entryY=0.5;entryDx=0;entryDy=0;endArrow=none;endFill=0;" edge="1" parent="1" source="ZF5UAmcNSKmpuMnHTkLK-76" target="ZF5UAmcNSKmpuMnHTkLK-57">
          <mxGeometry relative="1" as="geometry" />
        </mxCell>
        <mxCell id="ZF5UAmcNSKmpuMnHTkLK-76" value="map_type" style="ellipse;whiteSpace=wrap;html=1;align=center;" vertex="1" parent="1">
          <mxGeometry x="380" y="1260" width="100" height="40" as="geometry" />
        </mxCell>
        <mxCell id="ZF5UAmcNSKmpuMnHTkLK-79" style="edgeStyle=orthogonalEdgeStyle;rounded=0;orthogonalLoop=1;jettySize=auto;html=1;exitX=0;exitY=0.5;exitDx=0;exitDy=0;entryX=1;entryY=0.5;entryDx=0;entryDy=0;endArrow=none;endFill=0;" edge="1" parent="1" source="ZF5UAmcNSKmpuMnHTkLK-78" target="ZF5UAmcNSKmpuMnHTkLK-57">
          <mxGeometry relative="1" as="geometry" />
        </mxCell>
        <mxCell id="ZF5UAmcNSKmpuMnHTkLK-78" value="&lt;span style=&quot;border-bottom: 1px dotted&quot;&gt;site_record&lt;/span&gt;" style="ellipse;whiteSpace=wrap;html=1;align=center;" vertex="1" parent="1">
          <mxGeometry x="380" y="1310" width="100" height="40" as="geometry" />
        </mxCell>
        <mxCell id="ZF5UAmcNSKmpuMnHTkLK-91" style="edgeStyle=orthogonalEdgeStyle;rounded=0;orthogonalLoop=1;jettySize=auto;html=1;exitX=1;exitY=0.5;exitDx=0;exitDy=0;endArrow=none;endFill=0;entryX=0.75;entryY=1;entryDx=0;entryDy=0;" edge="1" parent="1" source="ZF5UAmcNSKmpuMnHTkLK-89" target="ZF5UAmcNSKmpuMnHTkLK-23">
          <mxGeometry relative="1" as="geometry" />
        </mxCell>
        <mxCell id="ZF5UAmcNSKmpuMnHTkLK-89" value="site_desc_id" style="ellipse;whiteSpace=wrap;html=1;align=center;fontStyle=4;" vertex="1" parent="1">
          <mxGeometry x="390" y="350" width="100" height="40" as="geometry" />
        </mxCell>
        <mxCell id="ZF5UAmcNSKmpuMnHTkLK-94" style="edgeStyle=orthogonalEdgeStyle;rounded=0;orthogonalLoop=1;jettySize=auto;html=1;exitX=1;exitY=1;exitDx=0;exitDy=0;entryX=0.25;entryY=1;entryDx=0;entryDy=0;endArrow=none;endFill=0;" edge="1" parent="1" source="ZF5UAmcNSKmpuMnHTkLK-93" target="ZF5UAmcNSKmpuMnHTkLK-7">
          <mxGeometry relative="1" as="geometry">
            <Array as="points">
              <mxPoint x="90" y="70" />
              <mxPoint x="135" y="70" />
            </Array>
          </mxGeometry>
        </mxCell>
        <mxCell id="ZF5UAmcNSKmpuMnHTkLK-93" value="site_id" style="ellipse;whiteSpace=wrap;html=1;align=center;fontStyle=4;" vertex="1" parent="1">
          <mxGeometry x="5" y="20" width="100" height="40" as="geometry" />
        </mxCell>
        <mxCell id="ZF5UAmcNSKmpuMnHTkLK-96" style="edgeStyle=orthogonalEdgeStyle;rounded=0;orthogonalLoop=1;jettySize=auto;html=1;exitX=0;exitY=0.5;exitDx=0;exitDy=0;entryX=1;entryY=0.5;entryDx=0;entryDy=0;endArrow=none;endFill=0;" edge="1" parent="1" source="ZF5UAmcNSKmpuMnHTkLK-95" target="ZF5UAmcNSKmpuMnHTkLK-24">
          <mxGeometry relative="1" as="geometry" />
        </mxCell>
        <mxCell id="ZF5UAmcNSKmpuMnHTkLK-95" value="site_identifier_id" style="ellipse;whiteSpace=wrap;html=1;align=center;fontStyle=4;" vertex="1" parent="1">
          <mxGeometry x="440" y="20" width="100" height="40" as="geometry" />
        </mxCell>
        <mxCell id="ZF5UAmcNSKmpuMnHTkLK-98" value="identifier_name" style="ellipse;whiteSpace=wrap;html=1;align=center;" vertex="1" parent="1">
          <mxGeometry x="550" y="20" width="100" height="40" as="geometry" />
        </mxCell>
        <mxCell id="ZF5UAmcNSKmpuMnHTkLK-100" value="Information Center" style="whiteSpace=wrap;html=1;align=center;" vertex="1" parent="1">
          <mxGeometry x="700" y="210" width="100" height="40" as="geometry" />
        </mxCell>
        <mxCell id="ZF5UAmcNSKmpuMnHTkLK-103" style="edgeStyle=orthogonalEdgeStyle;rounded=0;orthogonalLoop=1;jettySize=auto;html=1;exitX=1;exitY=0.5;exitDx=0;exitDy=0;endArrow=none;endFill=0;entryX=0;entryY=0.5;entryDx=0;entryDy=0;" edge="1" parent="1" source="ZF5UAmcNSKmpuMnHTkLK-102" target="ZF5UAmcNSKmpuMnHTkLK-14">
          <mxGeometry relative="1" as="geometry">
            <Array as="points">
              <mxPoint x="110" y="240" />
              <mxPoint x="110" y="160" />
            </Array>
          </mxGeometry>
        </mxCell>
        <mxCell id="ZF5UAmcNSKmpuMnHTkLK-102" value="county_id" style="ellipse;whiteSpace=wrap;html=1;align=center;fontStyle=4;" vertex="1" parent="1">
          <mxGeometry x="5" y="220" width="100" height="40" as="geometry" />
        </mxCell>
        <mxCell id="ZF5UAmcNSKmpuMnHTkLK-105" style="edgeStyle=orthogonalEdgeStyle;rounded=0;orthogonalLoop=1;jettySize=auto;html=1;exitX=1;exitY=0.5;exitDx=0;exitDy=0;entryX=0;entryY=0.5;entryDx=0;entryDy=0;endArrow=none;endFill=0;" edge="1" parent="1" source="ZF5UAmcNSKmpuMnHTkLK-104" target="ZF5UAmcNSKmpuMnHTkLK-14">
          <mxGeometry relative="1" as="geometry">
            <Array as="points">
              <mxPoint x="110" y="160" />
            </Array>
          </mxGeometry>
        </mxCell>
        <mxCell id="ZF5UAmcNSKmpuMnHTkLK-104" value="county_name" style="ellipse;whiteSpace=wrap;html=1;align=center;" vertex="1" parent="1">
          <mxGeometry x="5" y="270" width="100" height="40" as="geometry" />
        </mxCell>
        <mxCell id="ZF5UAmcNSKmpuMnHTkLK-108" style="edgeStyle=orthogonalEdgeStyle;rounded=0;orthogonalLoop=1;jettySize=auto;html=1;entryX=0;entryY=0.5;entryDx=0;entryDy=0;endArrow=none;endFill=0;" edge="1" parent="1" source="ZF5UAmcNSKmpuMnHTkLK-106" target="ZF5UAmcNSKmpuMnHTkLK-14">
          <mxGeometry relative="1" as="geometry">
            <Array as="points">
              <mxPoint x="110" y="340" />
              <mxPoint x="110" y="160" />
            </Array>
          </mxGeometry>
        </mxCell>
        <mxCell id="ZF5UAmcNSKmpuMnHTkLK-106" value="county_seat" style="ellipse;whiteSpace=wrap;html=1;align=center;" vertex="1" parent="1">
          <mxGeometry x="5" y="320" width="100" height="40" as="geometry" />
        </mxCell>
        <mxCell id="ZF5UAmcNSKmpuMnHTkLK-109" value="site_desc_text" style="ellipse;whiteSpace=wrap;html=1;align=center;" vertex="1" parent="1">
          <mxGeometry x="390" y="400" width="100" height="40" as="geometry" />
        </mxCell>
        <mxCell id="ZF5UAmcNSKmpuMnHTkLK-113" style="edgeStyle=orthogonalEdgeStyle;rounded=0;orthogonalLoop=1;jettySize=auto;html=1;exitX=1;exitY=0.5;exitDx=0;exitDy=0;entryX=0.75;entryY=1;entryDx=0;entryDy=0;endArrow=none;endFill=0;" edge="1" parent="1" source="ZF5UAmcNSKmpuMnHTkLK-111" target="ZF5UAmcNSKmpuMnHTkLK-23">
          <mxGeometry relative="1" as="geometry" />
        </mxCell>
        <mxCell id="ZF5UAmcNSKmpuMnHTkLK-111" value="site_desc_entered" style="ellipse;whiteSpace=wrap;html=1;align=center;" vertex="1" parent="1">
          <mxGeometry x="390" y="450" width="100" height="40" as="geometry" />
        </mxCell>
        <mxCell id="ZF5UAmcNSKmpuMnHTkLK-115" style="edgeStyle=orthogonalEdgeStyle;rounded=0;orthogonalLoop=1;jettySize=auto;html=1;exitX=1;exitY=0.5;exitDx=0;exitDy=0;endArrow=none;endFill=0;entryX=0.75;entryY=1;entryDx=0;entryDy=0;" edge="1" parent="1" source="ZF5UAmcNSKmpuMnHTkLK-116" target="ZF5UAmcNSKmpuMnHTkLK-23">
          <mxGeometry relative="1" as="geometry">
            <mxPoint x="519.9999999999998" y="300" as="sourcePoint" />
            <mxPoint x="490" y="300" as="targetPoint" />
            <Array as="points">
              <mxPoint x="514" y="320" />
            </Array>
          </mxGeometry>
        </mxCell>
        <mxCell id="ZF5UAmcNSKmpuMnHTkLK-116" value="&lt;span style=&quot;border-bottom: 1px dotted&quot;&gt;record_id&lt;/span&gt;" style="ellipse;whiteSpace=wrap;html=1;align=center;" vertex="1" parent="1">
          <mxGeometry x="390" y="300" width="100" height="40" as="geometry" />
        </mxCell>
        <mxCell id="ZF5UAmcNSKmpuMnHTkLK-119" style="edgeStyle=orthogonalEdgeStyle;rounded=0;orthogonalLoop=1;jettySize=auto;html=1;exitX=0;exitY=0.5;exitDx=0;exitDy=0;entryX=1;entryY=0.5;entryDx=0;entryDy=0;endArrow=none;endFill=0;" edge="1" parent="1" source="ZF5UAmcNSKmpuMnHTkLK-117" target="ZF5UAmcNSKmpuMnHTkLK-26">
          <mxGeometry relative="1" as="geometry">
            <Array as="points">
              <mxPoint x="530" y="380" />
              <mxPoint x="530" y="510" />
            </Array>
          </mxGeometry>
        </mxCell>
        <mxCell id="ZF5UAmcNSKmpuMnHTkLK-117" value="res_code_id" style="ellipse;whiteSpace=wrap;html=1;align=center;fontStyle=4;" vertex="1" parent="1">
          <mxGeometry x="540" y="360" width="100" height="40" as="geometry" />
        </mxCell>
        <mxCell id="ZF5UAmcNSKmpuMnHTkLK-121" style="edgeStyle=orthogonalEdgeStyle;rounded=0;orthogonalLoop=1;jettySize=auto;html=1;exitX=0;exitY=0.5;exitDx=0;exitDy=0;entryX=1;entryY=0.5;entryDx=0;entryDy=0;endArrow=none;endFill=0;" edge="1" parent="1" source="ZF5UAmcNSKmpuMnHTkLK-120" target="ZF5UAmcNSKmpuMnHTkLK-26">
          <mxGeometry relative="1" as="geometry">
            <Array as="points">
              <mxPoint x="530" y="430" />
              <mxPoint x="530" y="510" />
            </Array>
          </mxGeometry>
        </mxCell>
        <mxCell id="ZF5UAmcNSKmpuMnHTkLK-120" value="res_code_text" style="ellipse;whiteSpace=wrap;html=1;align=center;" vertex="1" parent="1">
          <mxGeometry x="540" y="410" width="100" height="40" as="geometry" />
        </mxCell>
        <mxCell id="ZF5UAmcNSKmpuMnHTkLK-123" style="edgeStyle=orthogonalEdgeStyle;rounded=0;orthogonalLoop=1;jettySize=auto;html=1;exitX=0;exitY=0.5;exitDx=0;exitDy=0;entryX=1;entryY=0.5;entryDx=0;entryDy=0;endArrow=none;endFill=0;" edge="1" parent="1" source="ZF5UAmcNSKmpuMnHTkLK-122" target="ZF5UAmcNSKmpuMnHTkLK-26">
          <mxGeometry relative="1" as="geometry">
            <Array as="points">
              <mxPoint x="530" y="480" />
              <mxPoint x="530" y="510" />
            </Array>
          </mxGeometry>
        </mxCell>
        <mxCell id="ZF5UAmcNSKmpuMnHTkLK-122" value="res_code_class" style="ellipse;whiteSpace=wrap;html=1;align=center;" vertex="1" parent="1">
          <mxGeometry x="540" y="460" width="100" height="40" as="geometry" />
        </mxCell>
        <mxCell id="ZF5UAmcNSKmpuMnHTkLK-128" style="edgeStyle=orthogonalEdgeStyle;rounded=0;orthogonalLoop=1;jettySize=auto;html=1;exitX=0;exitY=0.5;exitDx=0;exitDy=0;entryX=1;entryY=0.5;entryDx=0;entryDy=0;endArrow=none;endFill=0;" edge="1" parent="1" source="ZF5UAmcNSKmpuMnHTkLK-125" target="ZF5UAmcNSKmpuMnHTkLK-27">
          <mxGeometry relative="1" as="geometry">
            <Array as="points">
              <mxPoint x="520" y="530" />
              <mxPoint x="520" y="580" />
            </Array>
          </mxGeometry>
        </mxCell>
        <mxCell id="ZF5UAmcNSKmpuMnHTkLK-125" value="res_type_id" style="ellipse;whiteSpace=wrap;html=1;align=center;fontStyle=4;" vertex="1" parent="1">
          <mxGeometry x="540" y="510" width="100" height="40" as="geometry" />
        </mxCell>
        <mxCell id="ZF5UAmcNSKmpuMnHTkLK-133" style="edgeStyle=orthogonalEdgeStyle;rounded=0;orthogonalLoop=1;jettySize=auto;html=1;exitX=0;exitY=0.5;exitDx=0;exitDy=0;endArrow=none;endFill=0;entryX=1;entryY=0.5;entryDx=0;entryDy=0;" edge="1" parent="1" source="ZF5UAmcNSKmpuMnHTkLK-126" target="ZF5UAmcNSKmpuMnHTkLK-27">
          <mxGeometry relative="1" as="geometry">
            <mxPoint x="460" y="650" as="targetPoint" />
            <Array as="points">
              <mxPoint x="520" y="580" />
              <mxPoint x="490" y="581" />
            </Array>
          </mxGeometry>
        </mxCell>
        <mxCell id="ZF5UAmcNSKmpuMnHTkLK-126" value="res_type_text" style="ellipse;whiteSpace=wrap;html=1;align=center;" vertex="1" parent="1">
          <mxGeometry x="540" y="560" width="100" height="40" as="geometry" />
        </mxCell>
        <mxCell id="ZF5UAmcNSKmpuMnHTkLK-134" style="edgeStyle=orthogonalEdgeStyle;rounded=0;orthogonalLoop=1;jettySize=auto;html=1;exitX=0;exitY=0.5;exitDx=0;exitDy=0;endArrow=none;endFill=0;" edge="1" parent="1" source="ZF5UAmcNSKmpuMnHTkLK-127">
          <mxGeometry relative="1" as="geometry">
            <mxPoint x="519.9999999999998" y="570" as="targetPoint" />
          </mxGeometry>
        </mxCell>
        <mxCell id="ZF5UAmcNSKmpuMnHTkLK-127" value="res_type_class" style="ellipse;whiteSpace=wrap;html=1;align=center;" vertex="1" parent="1">
          <mxGeometry x="540" y="610" width="100" height="40" as="geometry" />
        </mxCell>
        <mxCell id="ZF5UAmcNSKmpuMnHTkLK-143" style="edgeStyle=orthogonalEdgeStyle;rounded=0;orthogonalLoop=1;jettySize=auto;html=1;exitX=0;exitY=0.5;exitDx=0;exitDy=0;entryX=1;entryY=0.25;entryDx=0;entryDy=0;endArrow=none;endFill=0;" edge="1" parent="1" source="ZF5UAmcNSKmpuMnHTkLK-136" target="ZF5UAmcNSKmpuMnHTkLK-33">
          <mxGeometry relative="1" as="geometry">
            <Array as="points">
              <mxPoint x="520" y="680" />
              <mxPoint x="520" y="710" />
            </Array>
          </mxGeometry>
        </mxCell>
        <mxCell id="ZF5UAmcNSKmpuMnHTkLK-136" value="owner_id" style="ellipse;whiteSpace=wrap;html=1;align=center;fontStyle=4;" vertex="1" parent="1">
          <mxGeometry x="540" y="660" width="100" height="40" as="geometry" />
        </mxCell>
        <mxCell id="ZF5UAmcNSKmpuMnHTkLK-145" style="edgeStyle=orthogonalEdgeStyle;rounded=0;orthogonalLoop=1;jettySize=auto;html=1;exitX=0;exitY=0.5;exitDx=0;exitDy=0;entryX=1;entryY=0.25;entryDx=0;entryDy=0;endArrow=none;endFill=0;" edge="1" parent="1" source="ZF5UAmcNSKmpuMnHTkLK-137" target="ZF5UAmcNSKmpuMnHTkLK-33">
          <mxGeometry relative="1" as="geometry">
            <Array as="points">
              <mxPoint x="520" y="730" />
              <mxPoint x="520" y="710" />
            </Array>
          </mxGeometry>
        </mxCell>
        <mxCell id="ZF5UAmcNSKmpuMnHTkLK-137" value="owner_name" style="ellipse;whiteSpace=wrap;html=1;align=center;" vertex="1" parent="1">
          <mxGeometry x="540" y="710" width="100" height="40" as="geometry" />
        </mxCell>
        <mxCell id="ZF5UAmcNSKmpuMnHTkLK-146" style="edgeStyle=orthogonalEdgeStyle;rounded=0;orthogonalLoop=1;jettySize=auto;html=1;exitX=0;exitY=0.5;exitDx=0;exitDy=0;entryX=1;entryY=0.25;entryDx=0;entryDy=0;endArrow=none;endFill=0;" edge="1" parent="1" target="ZF5UAmcNSKmpuMnHTkLK-33">
          <mxGeometry relative="1" as="geometry">
            <mxPoint x="540" y="780" as="sourcePoint" />
            <Array as="points">
              <mxPoint x="520" y="780" />
              <mxPoint x="520" y="710" />
            </Array>
          </mxGeometry>
        </mxCell>
        <mxCell id="ZF5UAmcNSKmpuMnHTkLK-154" style="edgeStyle=orthogonalEdgeStyle;rounded=0;orthogonalLoop=1;jettySize=auto;html=1;exitX=0;exitY=0.5;exitDx=0;exitDy=0;entryX=0;entryY=0;entryDx=0;entryDy=0;endArrow=none;endFill=0;" edge="1" parent="1" source="ZF5UAmcNSKmpuMnHTkLK-81" target="ZF5UAmcNSKmpuMnHTkLK-50">
          <mxGeometry relative="1" as="geometry" />
        </mxCell>
        <mxCell id="ZF5UAmcNSKmpuMnHTkLK-81" value="survey_type_id" style="ellipse;whiteSpace=wrap;html=1;align=center;fontStyle=4;" vertex="1" parent="1">
          <mxGeometry x="240" y="870" width="100" height="40" as="geometry" />
        </mxCell>
        <mxCell id="ZF5UAmcNSKmpuMnHTkLK-148" value="recorder_id" style="ellipse;whiteSpace=wrap;html=1;align=center;fontStyle=4;" vertex="1" parent="1">
          <mxGeometry x="540" y="820" width="100" height="40" as="geometry" />
        </mxCell>
        <mxCell id="ZF5UAmcNSKmpuMnHTkLK-150" value="recorder_name" style="ellipse;whiteSpace=wrap;html=1;align=center;" vertex="1" parent="1">
          <mxGeometry x="540" y="870" width="100" height="40" as="geometry" />
        </mxCell>
        <mxCell id="ZF5UAmcNSKmpuMnHTkLK-147" style="edgeStyle=orthogonalEdgeStyle;rounded=0;orthogonalLoop=1;jettySize=auto;html=1;exitX=0;exitY=0.5;exitDx=0;exitDy=0;entryX=0.75;entryY=1;entryDx=0;entryDy=0;endArrow=none;endFill=0;" edge="1" parent="1" source="ZF5UAmcNSKmpuMnHTkLK-148" target="ZF5UAmcNSKmpuMnHTkLK-37">
          <mxGeometry relative="1" as="geometry">
            <mxPoint x="490" y="870" as="targetPoint" />
            <Array as="points">
              <mxPoint x="520" y="840" />
              <mxPoint x="520" y="820" />
              <mxPoint x="465" y="820" />
            </Array>
          </mxGeometry>
        </mxCell>
        <mxCell id="ZF5UAmcNSKmpuMnHTkLK-151" style="edgeStyle=orthogonalEdgeStyle;rounded=0;orthogonalLoop=1;jettySize=auto;html=1;exitX=0;exitY=0.5;exitDx=0;exitDy=0;entryX=0.75;entryY=1;entryDx=0;entryDy=0;endArrow=none;endFill=0;" edge="1" parent="1" target="ZF5UAmcNSKmpuMnHTkLK-37">
          <mxGeometry relative="1" as="geometry">
            <mxPoint x="490" y="870" as="targetPoint" />
            <Array as="points">
              <mxPoint x="520" y="940" />
              <mxPoint x="520" y="820" />
              <mxPoint x="465" y="820" />
            </Array>
            <mxPoint x="540" y="940" as="sourcePoint" />
          </mxGeometry>
        </mxCell>
        <mxCell id="ZF5UAmcNSKmpuMnHTkLK-149" style="edgeStyle=orthogonalEdgeStyle;rounded=0;orthogonalLoop=1;jettySize=auto;html=1;exitX=0;exitY=0.5;exitDx=0;exitDy=0;entryX=0.75;entryY=1;entryDx=0;entryDy=0;endArrow=none;endFill=0;" edge="1" parent="1" source="ZF5UAmcNSKmpuMnHTkLK-150" target="ZF5UAmcNSKmpuMnHTkLK-37">
          <mxGeometry relative="1" as="geometry">
            <mxPoint x="490" y="870" as="targetPoint" />
            <Array as="points">
              <mxPoint x="520" y="890" />
              <mxPoint x="520" y="820" />
              <mxPoint x="465" y="820" />
            </Array>
          </mxGeometry>
        </mxCell>
        <mxCell id="ZF5UAmcNSKmpuMnHTkLK-156" value="affiliation_id" style="ellipse;whiteSpace=wrap;html=1;align=center;fontStyle=4;" vertex="1" parent="1">
          <mxGeometry x="700" y="840" width="100" height="40" as="geometry" />
        </mxCell>
        <mxCell id="ZF5UAmcNSKmpuMnHTkLK-159" value="address_id" style="ellipse;whiteSpace=wrap;html=1;align=center;fontStyle=4;" vertex="1" parent="1">
          <mxGeometry x="390" y="900" width="100" height="40" as="geometry" />
        </mxCell>
        <mxCell id="ZF5UAmcNSKmpuMnHTkLK-160" value="address_street" style="ellipse;whiteSpace=wrap;html=1;align=center;" vertex="1" parent="1">
          <mxGeometry x="390" y="950" width="100" height="40" as="geometry" />
        </mxCell>
        <mxCell id="ZF5UAmcNSKmpuMnHTkLK-161" value="address_city" style="ellipse;whiteSpace=wrap;html=1;align=center;" vertex="1" parent="1">
          <mxGeometry x="390" y="1000" width="100" height="40" as="geometry" />
        </mxCell>
        <mxCell id="ZF5UAmcNSKmpuMnHTkLK-162" style="edgeStyle=orthogonalEdgeStyle;rounded=0;orthogonalLoop=1;jettySize=auto;html=1;exitX=0;exitY=0.5;exitDx=0;exitDy=0;entryX=0;entryY=0.75;entryDx=0;entryDy=0;endArrow=none;endFill=0;" edge="1" parent="1" source="ZF5UAmcNSKmpuMnHTkLK-159" target="ZF5UAmcNSKmpuMnHTkLK-39">
          <mxGeometry relative="1" as="geometry">
            <mxPoint x="315" y="890" as="targetPoint" />
            <Array as="points">
              <mxPoint x="370" y="920" />
              <mxPoint x="370" y="870" />
            </Array>
          </mxGeometry>
        </mxCell>
        <mxCell id="ZF5UAmcNSKmpuMnHTkLK-163" style="edgeStyle=orthogonalEdgeStyle;rounded=0;orthogonalLoop=1;jettySize=auto;html=1;exitX=0;exitY=0.5;exitDx=0;exitDy=0;entryX=0;entryY=0.75;entryDx=0;entryDy=0;endArrow=none;endFill=0;" edge="1" parent="1" source="ZF5UAmcNSKmpuMnHTkLK-161" target="ZF5UAmcNSKmpuMnHTkLK-39">
          <mxGeometry relative="1" as="geometry">
            <mxPoint x="315" y="890" as="targetPoint" />
            <Array as="points">
              <mxPoint x="370" y="1020" />
              <mxPoint x="370" y="870" />
            </Array>
          </mxGeometry>
        </mxCell>
        <mxCell id="ZF5UAmcNSKmpuMnHTkLK-164" style="edgeStyle=orthogonalEdgeStyle;rounded=0;orthogonalLoop=1;jettySize=auto;html=1;exitX=0;exitY=0.5;exitDx=0;exitDy=0;entryX=0;entryY=0.75;entryDx=0;entryDy=0;endArrow=none;endFill=0;" edge="1" parent="1" source="ZF5UAmcNSKmpuMnHTkLK-160" target="ZF5UAmcNSKmpuMnHTkLK-39">
          <mxGeometry relative="1" as="geometry">
            <mxPoint x="315" y="890" as="targetPoint" />
            <Array as="points">
              <mxPoint x="370" y="970" />
              <mxPoint x="370" y="870" />
            </Array>
          </mxGeometry>
        </mxCell>
        <mxCell id="ZF5UAmcNSKmpuMnHTkLK-165" value="address_state" style="ellipse;whiteSpace=wrap;html=1;align=center;" vertex="1" parent="1">
          <mxGeometry x="500" y="975" width="100" height="40" as="geometry" />
        </mxCell>
        <mxCell id="ZF5UAmcNSKmpuMnHTkLK-166" value="address_zip" style="ellipse;whiteSpace=wrap;html=1;align=center;" vertex="1" parent="1">
          <mxGeometry x="500" y="1025" width="100" height="40" as="geometry" />
        </mxCell>
        <mxCell id="ZF5UAmcNSKmpuMnHTkLK-167" style="edgeStyle=orthogonalEdgeStyle;rounded=0;orthogonalLoop=1;jettySize=auto;html=1;exitX=0;exitY=0.5;exitDx=0;exitDy=0;entryX=0;entryY=0.75;entryDx=0;entryDy=0;endArrow=none;endFill=0;" edge="1" parent="1" source="ZF5UAmcNSKmpuMnHTkLK-166" target="ZF5UAmcNSKmpuMnHTkLK-39">
          <mxGeometry relative="1" as="geometry">
            <mxPoint x="500" y="895" as="targetPoint" />
            <Array as="points">
              <mxPoint x="370" y="1045" />
              <mxPoint x="370" y="870" />
            </Array>
          </mxGeometry>
        </mxCell>
        <mxCell id="ZF5UAmcNSKmpuMnHTkLK-168" style="edgeStyle=orthogonalEdgeStyle;rounded=0;orthogonalLoop=1;jettySize=auto;html=1;exitX=0;exitY=0.5;exitDx=0;exitDy=0;endArrow=none;endFill=0;entryX=0;entryY=0.75;entryDx=0;entryDy=0;" edge="1" parent="1" source="ZF5UAmcNSKmpuMnHTkLK-165" target="ZF5UAmcNSKmpuMnHTkLK-39">
          <mxGeometry relative="1" as="geometry">
            <mxPoint x="380" y="900" as="targetPoint" />
            <Array as="points">
              <mxPoint x="370" y="995" />
              <mxPoint x="370" y="870" />
            </Array>
          </mxGeometry>
        </mxCell>
        <mxCell id="ZF5UAmcNSKmpuMnHTkLK-171" style="edgeStyle=orthogonalEdgeStyle;rounded=0;orthogonalLoop=1;jettySize=auto;html=1;exitX=1;exitY=0.5;exitDx=0;exitDy=0;entryX=1;entryY=0.5;entryDx=0;entryDy=0;endArrow=none;endFill=0;" edge="1" parent="1" source="ZF5UAmcNSKmpuMnHTkLK-170" target="ZF5UAmcNSKmpuMnHTkLK-40">
          <mxGeometry relative="1" as="geometry" />
        </mxCell>
        <mxCell id="ZF5UAmcNSKmpuMnHTkLK-170" value="affiliation_title" style="ellipse;whiteSpace=wrap;html=1;align=center;" vertex="1" parent="1">
          <mxGeometry x="700" y="890" width="100" height="40" as="geometry" />
        </mxCell>
        <mxCell id="ZF5UAmcNSKmpuMnHTkLK-174" style="edgeStyle=orthogonalEdgeStyle;rounded=0;orthogonalLoop=1;jettySize=auto;html=1;exitX=1;exitY=0.5;exitDx=0;exitDy=0;entryX=1;entryY=0.5;entryDx=0;entryDy=0;endArrow=none;endFill=0;" edge="1" parent="1" source="ZF5UAmcNSKmpuMnHTkLK-173" target="ZF5UAmcNSKmpuMnHTkLK-40">
          <mxGeometry relative="1" as="geometry" />
        </mxCell>
        <mxCell id="ZF5UAmcNSKmpuMnHTkLK-173" value="affiliation_org" style="ellipse;whiteSpace=wrap;html=1;align=center;" vertex="1" parent="1">
          <mxGeometry x="700" y="940" width="100" height="40" as="geometry" />
        </mxCell>
        <mxCell id="ZF5UAmcNSKmpuMnHTkLK-178" style="edgeStyle=orthogonalEdgeStyle;rounded=0;orthogonalLoop=1;jettySize=auto;html=1;exitX=0;exitY=0.5;exitDx=0;exitDy=0;entryX=0;entryY=0;entryDx=0;entryDy=0;endArrow=none;endFill=0;" edge="1" parent="1" source="ZF5UAmcNSKmpuMnHTkLK-176" target="ZF5UAmcNSKmpuMnHTkLK-50">
          <mxGeometry relative="1" as="geometry" />
        </mxCell>
        <mxCell id="ZF5UAmcNSKmpuMnHTkLK-176" value="survey_type_text" style="ellipse;whiteSpace=wrap;html=1;align=center;" vertex="1" parent="1">
          <mxGeometry x="240" y="920" width="100" height="40" as="geometry" />
        </mxCell>
        <mxCell id="ZF5UAmcNSKmpuMnHTkLK-179" style="edgeStyle=orthogonalEdgeStyle;rounded=0;orthogonalLoop=1;jettySize=auto;html=1;exitX=0;exitY=0.5;exitDx=0;exitDy=0;entryX=0;entryY=0;entryDx=0;entryDy=0;endArrow=none;endFill=0;" edge="1" parent="1" source="ZF5UAmcNSKmpuMnHTkLK-177" target="ZF5UAmcNSKmpuMnHTkLK-50">
          <mxGeometry relative="1" as="geometry" />
        </mxCell>
        <mxCell id="ZF5UAmcNSKmpuMnHTkLK-177" value="survey_intensity" style="ellipse;whiteSpace=wrap;html=1;align=center;" vertex="1" parent="1">
          <mxGeometry x="240" y="970" width="100" height="40" as="geometry" />
        </mxCell>
        <mxCell id="ZF5UAmcNSKmpuMnHTkLK-180" style="edgeStyle=orthogonalEdgeStyle;rounded=0;orthogonalLoop=1;jettySize=auto;html=1;exitX=0;exitY=0.5;exitDx=0;exitDy=0;entryX=1;entryY=0.25;entryDx=0;entryDy=0;endArrow=none;endFill=0;" edge="1" parent="1" source="ZF5UAmcNSKmpuMnHTkLK-181" target="ZF5UAmcNSKmpuMnHTkLK-52">
          <mxGeometry relative="1" as="geometry">
            <mxPoint x="380" y="1210" as="targetPoint" />
          </mxGeometry>
        </mxCell>
        <mxCell id="ZF5UAmcNSKmpuMnHTkLK-181" value="citations_id" style="ellipse;whiteSpace=wrap;html=1;align=center;fontStyle=4;" vertex="1" parent="1">
          <mxGeometry x="400" y="1050" width="100" height="40" as="geometry" />
        </mxCell>
        <mxCell id="ZF5UAmcNSKmpuMnHTkLK-182" style="edgeStyle=orthogonalEdgeStyle;rounded=0;orthogonalLoop=1;jettySize=auto;html=1;exitX=0;exitY=0.5;exitDx=0;exitDy=0;entryX=1;entryY=0.25;entryDx=0;entryDy=0;endArrow=none;endFill=0;" edge="1" parent="1" source="ZF5UAmcNSKmpuMnHTkLK-183" target="ZF5UAmcNSKmpuMnHTkLK-52">
          <mxGeometry relative="1" as="geometry">
            <mxPoint x="380" y="1210" as="targetPoint" />
          </mxGeometry>
        </mxCell>
        <mxCell id="ZF5UAmcNSKmpuMnHTkLK-183" value="citations_text" style="ellipse;whiteSpace=wrap;html=1;align=center;" vertex="1" parent="1">
          <mxGeometry x="400" y="1100" width="100" height="40" as="geometry" />
        </mxCell>
        <mxCell id="ZF5UAmcNSKmpuMnHTkLK-184" style="edgeStyle=orthogonalEdgeStyle;rounded=0;orthogonalLoop=1;jettySize=auto;html=1;exitX=0;exitY=0.5;exitDx=0;exitDy=0;entryX=1;entryY=0.25;entryDx=0;entryDy=0;endArrow=none;endFill=0;" edge="1" parent="1" target="ZF5UAmcNSKmpuMnHTkLK-52">
          <mxGeometry relative="1" as="geometry">
            <mxPoint x="380" y="1210" as="targetPoint" />
            <mxPoint x="500" y="1095" as="sourcePoint" />
          </mxGeometry>
        </mxCell>
        <mxCell id="ZF5UAmcNSKmpuMnHTkLK-186" style="edgeStyle=orthogonalEdgeStyle;rounded=0;orthogonalLoop=1;jettySize=auto;html=1;exitX=0;exitY=0.5;exitDx=0;exitDy=0;endArrow=none;endFill=0;entryX=1;entryY=0.5;entryDx=0;entryDy=0;" edge="1" parent="1" source="ZF5UAmcNSKmpuMnHTkLK-187" target="ZF5UAmcNSKmpuMnHTkLK-65">
          <mxGeometry relative="1" as="geometry">
            <mxPoint x="410" y="1379" as="targetPoint" />
          </mxGeometry>
        </mxCell>
        <mxCell id="ZF5UAmcNSKmpuMnHTkLK-187" value="loc_map_id" style="ellipse;whiteSpace=wrap;html=1;align=center;fontStyle=4;" vertex="1" parent="1">
          <mxGeometry x="470" y="1360" width="100" height="40" as="geometry" />
        </mxCell>
        <mxCell id="ZF5UAmcNSKmpuMnHTkLK-188" style="edgeStyle=orthogonalEdgeStyle;rounded=0;orthogonalLoop=1;jettySize=auto;html=1;entryX=1;entryY=0.5;entryDx=0;entryDy=0;endArrow=none;endFill=0;" edge="1" parent="1" source="ZF5UAmcNSKmpuMnHTkLK-189">
          <mxGeometry relative="1" as="geometry">
            <mxPoint x="410" y="1379" as="targetPoint" />
          </mxGeometry>
        </mxCell>
        <mxCell id="ZF5UAmcNSKmpuMnHTkLK-189" value="loc_map_quad" style="ellipse;whiteSpace=wrap;html=1;align=center;" vertex="1" parent="1">
          <mxGeometry x="470" y="1409" width="100" height="40" as="geometry" />
        </mxCell>
        <mxCell id="ZF5UAmcNSKmpuMnHTkLK-190" style="edgeStyle=orthogonalEdgeStyle;rounded=0;orthogonalLoop=1;jettySize=auto;html=1;exitX=0;exitY=0.5;exitDx=0;exitDy=0;entryX=1;entryY=0.5;entryDx=0;entryDy=0;endArrow=none;endFill=0;" edge="1" parent="1" source="ZF5UAmcNSKmpuMnHTkLK-191">
          <mxGeometry relative="1" as="geometry">
            <mxPoint x="410" y="1379" as="targetPoint" />
          </mxGeometry>
        </mxCell>
        <mxCell id="ZF5UAmcNSKmpuMnHTkLK-191" value="loc_map_scale" style="ellipse;whiteSpace=wrap;html=1;align=center;" vertex="1" parent="1">
          <mxGeometry x="470" y="1460" width="100" height="40" as="geometry" />
        </mxCell>
        <mxCell id="ZF5UAmcNSKmpuMnHTkLK-193" style="edgeStyle=orthogonalEdgeStyle;rounded=0;orthogonalLoop=1;jettySize=auto;html=1;exitX=0;exitY=0.5;exitDx=0;exitDy=0;endArrow=none;endFill=0;entryX=1;entryY=0.5;entryDx=0;entryDy=0;" edge="1" parent="1" source="ZF5UAmcNSKmpuMnHTkLK-64" target="ZF5UAmcNSKmpuMnHTkLK-194">
          <mxGeometry relative="1" as="geometry">
            <mxPoint x="-60" y="1380" as="targetPoint" />
          </mxGeometry>
        </mxCell>
        <mxCell id="ZF5UAmcNSKmpuMnHTkLK-194" value="sketch_map_id" style="ellipse;whiteSpace=wrap;html=1;align=center;fontStyle=4;" vertex="1" parent="1">
          <mxGeometry x="20" y="1360" width="100" height="40" as="geometry" />
        </mxCell>
        <mxCell id="ZF5UAmcNSKmpuMnHTkLK-195" style="edgeStyle=orthogonalEdgeStyle;rounded=0;orthogonalLoop=1;jettySize=auto;html=1;endArrow=none;endFill=0;exitX=1;exitY=0.5;exitDx=0;exitDy=0;entryX=0;entryY=0.5;entryDx=0;entryDy=0;" edge="1" parent="1" source="ZF5UAmcNSKmpuMnHTkLK-196" target="ZF5UAmcNSKmpuMnHTkLK-64">
          <mxGeometry relative="1" as="geometry">
            <mxPoint x="130" y="1379" as="targetPoint" />
            <Array as="points">
              <mxPoint x="140" y="1429" />
              <mxPoint x="140" y="1380" />
            </Array>
          </mxGeometry>
        </mxCell>
        <mxCell id="ZF5UAmcNSKmpuMnHTkLK-196" value="sketch_map_det" style="ellipse;whiteSpace=wrap;html=1;align=center;" vertex="1" parent="1">
          <mxGeometry x="20" y="1409" width="100" height="40" as="geometry" />
        </mxCell>
        <mxCell id="ZF5UAmcNSKmpuMnHTkLK-197" style="edgeStyle=orthogonalEdgeStyle;rounded=0;orthogonalLoop=1;jettySize=auto;html=1;exitX=1;exitY=0.5;exitDx=0;exitDy=0;entryX=0;entryY=0.5;entryDx=0;entryDy=0;endArrow=none;endFill=0;" edge="1" parent="1" source="ZF5UAmcNSKmpuMnHTkLK-198" target="ZF5UAmcNSKmpuMnHTkLK-64">
          <mxGeometry relative="1" as="geometry">
            <mxPoint x="-40" y="1379" as="targetPoint" />
            <Array as="points">
              <mxPoint x="140" y="1480" />
              <mxPoint x="140" y="1380" />
            </Array>
          </mxGeometry>
        </mxCell>
        <mxCell id="ZF5UAmcNSKmpuMnHTkLK-198" value="sketch_map_scale" style="ellipse;whiteSpace=wrap;html=1;align=center;" vertex="1" parent="1">
          <mxGeometry x="20" y="1460" width="100" height="40" as="geometry" />
        </mxCell>
        <mxCell id="ZF5UAmcNSKmpuMnHTkLK-200" style="edgeStyle=orthogonalEdgeStyle;rounded=0;orthogonalLoop=1;jettySize=auto;html=1;exitX=1;exitY=0.5;exitDx=0;exitDy=0;entryX=1;entryY=0.75;entryDx=0;entryDy=0;endArrow=none;endFill=0;" edge="1" parent="1" source="ZF5UAmcNSKmpuMnHTkLK-201" target="ZF5UAmcNSKmpuMnHTkLK-71">
          <mxGeometry relative="1" as="geometry">
            <mxPoint x="-30" y="1190" as="targetPoint" />
            <Array as="points">
              <mxPoint x="130" y="1160" />
              <mxPoint x="130" y="1120" />
            </Array>
          </mxGeometry>
        </mxCell>
        <mxCell id="ZF5UAmcNSKmpuMnHTkLK-201" value="photo_id" style="ellipse;whiteSpace=wrap;html=1;align=center;fontStyle=4;" vertex="1" parent="1">
          <mxGeometry x="20" y="1140" width="100" height="40" as="geometry" />
        </mxCell>
        <mxCell id="ZF5UAmcNSKmpuMnHTkLK-202" style="edgeStyle=orthogonalEdgeStyle;rounded=0;orthogonalLoop=1;jettySize=auto;html=1;exitX=1;exitY=0.5;exitDx=0;exitDy=0;entryX=1;entryY=0.75;entryDx=0;entryDy=0;endArrow=none;endFill=0;" edge="1" parent="1" source="ZF5UAmcNSKmpuMnHTkLK-203" target="ZF5UAmcNSKmpuMnHTkLK-71">
          <mxGeometry relative="1" as="geometry">
            <mxPoint x="-30" y="1190" as="targetPoint" />
            <Array as="points">
              <mxPoint x="130" y="1210" />
              <mxPoint x="130" y="1120" />
            </Array>
          </mxGeometry>
        </mxCell>
        <mxCell id="ZF5UAmcNSKmpuMnHTkLK-203" value="photo_path" style="ellipse;whiteSpace=wrap;html=1;align=center;" vertex="1" parent="1">
          <mxGeometry x="20" y="1190" width="100" height="40" as="geometry" />
        </mxCell>
        <mxCell id="ZF5UAmcNSKmpuMnHTkLK-204" style="edgeStyle=orthogonalEdgeStyle;rounded=0;orthogonalLoop=1;jettySize=auto;html=1;exitX=1;exitY=0.5;exitDx=0;exitDy=0;entryX=1;entryY=0.75;entryDx=0;entryDy=0;endArrow=none;endFill=0;" edge="1" parent="1" target="ZF5UAmcNSKmpuMnHTkLK-71">
          <mxGeometry relative="1" as="geometry">
            <mxPoint x="130" y="1119.98" as="targetPoint" />
            <Array as="points">
              <mxPoint x="130" y="1260" />
              <mxPoint x="130" y="1120" />
            </Array>
            <mxPoint x="119.99999999999943" y="1260" as="sourcePoint" />
          </mxGeometry>
        </mxCell>
        <mxCell id="ZF5UAmcNSKmpuMnHTkLK-207" style="edgeStyle=orthogonalEdgeStyle;rounded=0;orthogonalLoop=1;jettySize=auto;html=1;exitX=1;exitY=0.5;exitDx=0;exitDy=0;entryX=1;entryY=0.75;entryDx=0;entryDy=0;endArrow=none;endFill=0;" edge="1" parent="1" source="ZF5UAmcNSKmpuMnHTkLK-206" target="ZF5UAmcNSKmpuMnHTkLK-71">
          <mxGeometry relative="1" as="geometry">
            <Array as="points">
              <mxPoint x="130" y="1310" />
              <mxPoint x="130" y="1120" />
            </Array>
          </mxGeometry>
        </mxCell>
        <mxCell id="ZF5UAmcNSKmpuMnHTkLK-206" value="photo_size" style="ellipse;whiteSpace=wrap;html=1;align=center;" vertex="1" parent="1">
          <mxGeometry x="20" y="1290" width="100" height="40" as="geometry" />
        </mxCell>
        <mxCell id="ZF5UAmcNSKmpuMnHTkLK-208" value="&lt;span style=&quot;border-bottom: 1px dotted&quot;&gt;affiliation&lt;/span&gt;" style="ellipse;whiteSpace=wrap;html=1;align=center;" vertex="1" parent="1">
          <mxGeometry x="540" y="920" width="100" height="40" as="geometry" />
        </mxCell>
        <mxCell id="ZF5UAmcNSKmpuMnHTkLK-209" style="edgeStyle=orthogonalEdgeStyle;rounded=0;orthogonalLoop=1;jettySize=auto;html=1;exitX=0.5;exitY=0;exitDx=0;exitDy=0;entryX=0.75;entryY=1;entryDx=0;entryDy=0;endArrow=none;endFill=0;" edge="1" parent="1" source="ZF5UAmcNSKmpuMnHTkLK-210">
          <mxGeometry relative="1" as="geometry">
            <mxPoint x="465" y="810" as="targetPoint" />
            <Array as="points">
              <mxPoint x="675" y="916" />
              <mxPoint x="520" y="916" />
              <mxPoint x="520" y="820" />
              <mxPoint x="465" y="820" />
            </Array>
            <mxPoint x="675" y="985" as="sourcePoint" />
          </mxGeometry>
        </mxCell>
        <mxCell id="ZF5UAmcNSKmpuMnHTkLK-210" value="&lt;span style=&quot;border-bottom: 1px dotted&quot;&gt;address&lt;/span&gt;" style="ellipse;whiteSpace=wrap;html=1;align=center;" vertex="1" parent="1">
          <mxGeometry x="625" y="985" width="100" height="40" as="geometry" />
        </mxCell>
        <mxCell id="ZF5UAmcNSKmpuMnHTkLK-211" value="&lt;span style=&quot;border-bottom: 1px dotted&quot;&gt;address&lt;/span&gt;" style="ellipse;whiteSpace=wrap;html=1;align=center;" vertex="1" parent="1">
          <mxGeometry x="540" y="760" width="100" height="40" as="geometry" />
        </mxCell>
        <mxCell id="ZF5UAmcNSKmpuMnHTkLK-213" value="age_source" style="ellipse;whiteSpace=wrap;html=1;align=center;" vertex="1" parent="1">
          <mxGeometry x="560" y="70" width="100" height="40" as="geometry" />
        </mxCell>
        <mxCell id="ZF5UAmcNSKmpuMnHTkLK-214" style="edgeStyle=orthogonalEdgeStyle;rounded=0;orthogonalLoop=1;jettySize=auto;html=1;exitX=0;exitY=1;exitDx=0;exitDy=0;entryX=1;entryY=0;entryDx=0;entryDy=0;entryPerimeter=0;endArrow=none;endFill=0;" edge="1" parent="1" source="ZF5UAmcNSKmpuMnHTkLK-213" target="ZF5UAmcNSKmpuMnHTkLK-8">
          <mxGeometry relative="1" as="geometry">
            <Array as="points">
              <mxPoint x="575" y="114" />
              <mxPoint x="350" y="114" />
              <mxPoint x="350" y="270" />
            </Array>
          </mxGeometry>
        </mxCell>
        <mxCell id="ZF5UAmcNSKmpuMnHTkLK-215" value="&lt;span style=&quot;border-bottom: 1px dotted&quot;&gt;site_record&lt;/span&gt;" style="ellipse;whiteSpace=wrap;html=1;align=center;" vertex="1" parent="1">
          <mxGeometry x="500" y="1076" width="100" height="40" as="geometry" />
        </mxCell>
        <mxCell id="ZF5UAmcNSKmpuMnHTkLK-219" style="edgeStyle=orthogonalEdgeStyle;rounded=0;orthogonalLoop=1;jettySize=auto;html=1;exitX=1;exitY=0.5;exitDx=0;exitDy=0;entryX=1;entryY=1;entryDx=0;entryDy=0;endArrow=none;endFill=0;" edge="1" parent="1" source="ZF5UAmcNSKmpuMnHTkLK-220" target="ZF5UAmcNSKmpuMnHTkLK-70">
          <mxGeometry relative="1" as="geometry">
            <mxPoint x="115" y="560" as="targetPoint" />
            <Array as="points">
              <mxPoint x="125" y="600" />
              <mxPoint x="125" y="570" />
            </Array>
          </mxGeometry>
        </mxCell>
        <mxCell id="ZF5UAmcNSKmpuMnHTkLK-220" value="shape_file_id" style="ellipse;whiteSpace=wrap;html=1;align=center;fontStyle=4;" vertex="1" parent="1">
          <mxGeometry x="15" y="580" width="100" height="40" as="geometry" />
        </mxCell>
        <mxCell id="ZF5UAmcNSKmpuMnHTkLK-221" style="edgeStyle=orthogonalEdgeStyle;rounded=0;orthogonalLoop=1;jettySize=auto;html=1;exitX=1;exitY=0.5;exitDx=0;exitDy=0;entryX=1;entryY=1;entryDx=0;entryDy=0;endArrow=none;endFill=0;" edge="1" parent="1" source="ZF5UAmcNSKmpuMnHTkLK-222" target="ZF5UAmcNSKmpuMnHTkLK-70">
          <mxGeometry relative="1" as="geometry">
            <mxPoint x="115" y="560" as="targetPoint" />
            <Array as="points">
              <mxPoint x="125" y="650" />
              <mxPoint x="125" y="570" />
            </Array>
          </mxGeometry>
        </mxCell>
        <mxCell id="ZF5UAmcNSKmpuMnHTkLK-222" value="shape_file_path" style="ellipse;whiteSpace=wrap;html=1;align=center;" vertex="1" parent="1">
          <mxGeometry x="15" y="630" width="100" height="40" as="geometry" />
        </mxCell>
        <mxCell id="ZF5UAmcNSKmpuMnHTkLK-223" style="edgeStyle=orthogonalEdgeStyle;rounded=0;orthogonalLoop=1;jettySize=auto;html=1;exitX=1;exitY=0.5;exitDx=0;exitDy=0;endArrow=none;endFill=0;entryX=1;entryY=1;entryDx=0;entryDy=0;" edge="1" parent="1" source="ZF5UAmcNSKmpuMnHTkLK-225" target="ZF5UAmcNSKmpuMnHTkLK-70">
          <mxGeometry relative="1" as="geometry">
            <mxPoint x="120" y="560" as="targetPoint" />
            <Array as="points">
              <mxPoint x="125" y="700" />
              <mxPoint x="125" y="570" />
            </Array>
            <mxPoint x="115" y="700" as="sourcePoint" />
          </mxGeometry>
        </mxCell>
        <mxCell id="ZF5UAmcNSKmpuMnHTkLK-225" value="&lt;span style=&quot;border-bottom: 1px dotted&quot;&gt;site_record&lt;/span&gt;" style="ellipse;whiteSpace=wrap;html=1;align=center;" vertex="1" parent="1">
          <mxGeometry x="15" y="680" width="100" height="40" as="geometry" />
        </mxCell>
        <mxCell id="ZF5UAmcNSKmpuMnHTkLK-226" value="&lt;span style=&quot;border-bottom: 1px dotted&quot;&gt;site_record&lt;/span&gt;" style="ellipse;whiteSpace=wrap;html=1;align=center;" vertex="1" parent="1">
          <mxGeometry x="20" y="1240" width="100" height="40" as="geometry" />
        </mxCell>
        <mxCell id="ZF5UAmcNSKmpuMnHTkLK-227" value="user_id" style="ellipse;whiteSpace=wrap;html=1;align=center;fontStyle=4;" vertex="1" parent="1">
          <mxGeometry x="700" y="460" width="100" height="40" as="geometry" />
        </mxCell>
        <mxCell id="ZF5UAmcNSKmpuMnHTkLK-228" value="user_name" style="ellipse;whiteSpace=wrap;html=1;align=center;" vertex="1" parent="1">
          <mxGeometry x="700" y="510" width="100" height="40" as="geometry" />
        </mxCell>
        <mxCell id="ZF5UAmcNSKmpuMnHTkLK-229" style="edgeStyle=orthogonalEdgeStyle;rounded=0;orthogonalLoop=1;jettySize=auto;html=1;exitX=0;exitY=0.5;exitDx=0;exitDy=0;entryX=0;entryY=0;entryDx=0;entryDy=0;endArrow=none;endFill=0;" edge="1" parent="1" source="ZF5UAmcNSKmpuMnHTkLK-227" target="ZF5UAmcNSKmpuMnHTkLK-48">
          <mxGeometry relative="1" as="geometry">
            <mxPoint x="625" y="450" as="targetPoint" />
            <Array as="points">
              <mxPoint x="690" y="480" />
              <mxPoint x="690" y="630" />
            </Array>
          </mxGeometry>
        </mxCell>
        <mxCell id="ZF5UAmcNSKmpuMnHTkLK-230" style="edgeStyle=orthogonalEdgeStyle;rounded=0;orthogonalLoop=1;jettySize=auto;html=1;exitX=0;exitY=0.5;exitDx=0;exitDy=0;entryX=0;entryY=0;entryDx=0;entryDy=0;endArrow=none;endFill=0;" edge="1" parent="1" source="ZF5UAmcNSKmpuMnHTkLK-232" target="ZF5UAmcNSKmpuMnHTkLK-48">
          <mxGeometry relative="1" as="geometry">
            <mxPoint x="625" y="450" as="targetPoint" />
            <Array as="points">
              <mxPoint x="690" y="580" />
              <mxPoint x="690" y="630" />
            </Array>
            <mxPoint x="700" y="580" as="sourcePoint" />
          </mxGeometry>
        </mxCell>
        <mxCell id="ZF5UAmcNSKmpuMnHTkLK-231" style="edgeStyle=orthogonalEdgeStyle;rounded=0;orthogonalLoop=1;jettySize=auto;html=1;exitX=0;exitY=0.5;exitDx=0;exitDy=0;endArrow=none;endFill=0;entryX=0;entryY=0;entryDx=0;entryDy=0;" edge="1" parent="1" source="ZF5UAmcNSKmpuMnHTkLK-228" target="ZF5UAmcNSKmpuMnHTkLK-48">
          <mxGeometry relative="1" as="geometry">
            <mxPoint x="690" y="610" as="targetPoint" />
            <Array as="points">
              <mxPoint x="690" y="530" />
              <mxPoint x="690" y="630" />
            </Array>
          </mxGeometry>
        </mxCell>
        <mxCell id="ZF5UAmcNSKmpuMnHTkLK-232" value="&lt;span style=&quot;border-bottom: 1px dotted&quot;&gt;affiliation&lt;/span&gt;" style="ellipse;whiteSpace=wrap;html=1;align=center;" vertex="1" parent="1">
          <mxGeometry x="700" y="560" width="100" height="40" as="geometry" />
        </mxCell>
        <mxCell id="ZF5UAmcNSKmpuMnHTkLK-239" style="edgeStyle=orthogonalEdgeStyle;rounded=0;orthogonalLoop=1;jettySize=auto;html=1;exitX=1;exitY=0.5;exitDx=0;exitDy=0;entryX=1;entryY=0.5;entryDx=0;entryDy=0;endArrow=none;endFill=0;" edge="1" parent="1" source="ZF5UAmcNSKmpuMnHTkLK-233" target="ZF5UAmcNSKmpuMnHTkLK-69">
          <mxGeometry relative="1" as="geometry" />
        </mxCell>
        <mxCell id="ZF5UAmcNSKmpuMnHTkLK-233" value="account_id" style="ellipse;whiteSpace=wrap;html=1;align=center;fontStyle=4;" vertex="1" parent="1">
          <mxGeometry x="881" y="690" width="100" height="40" as="geometry" />
        </mxCell>
        <mxCell id="ZF5UAmcNSKmpuMnHTkLK-238" style="edgeStyle=orthogonalEdgeStyle;rounded=0;orthogonalLoop=1;jettySize=auto;html=1;exitX=1;exitY=0.5;exitDx=0;exitDy=0;entryX=1;entryY=0.5;entryDx=0;entryDy=0;endArrow=none;endFill=0;" edge="1" parent="1" source="ZF5UAmcNSKmpuMnHTkLK-235" target="ZF5UAmcNSKmpuMnHTkLK-69">
          <mxGeometry relative="1" as="geometry" />
        </mxCell>
        <mxCell id="ZF5UAmcNSKmpuMnHTkLK-235" value="account_name" style="ellipse;whiteSpace=wrap;html=1;align=center;" vertex="1" parent="1">
          <mxGeometry x="881" y="740" width="100" height="40" as="geometry" />
        </mxCell>
        <mxCell id="ZF5UAmcNSKmpuMnHTkLK-237" style="edgeStyle=orthogonalEdgeStyle;rounded=0;orthogonalLoop=1;jettySize=auto;html=1;exitX=1;exitY=0.5;exitDx=0;exitDy=0;entryX=1;entryY=0.5;entryDx=0;entryDy=0;endArrow=none;endFill=0;" edge="1" parent="1" source="ZF5UAmcNSKmpuMnHTkLK-236" target="ZF5UAmcNSKmpuMnHTkLK-69">
          <mxGeometry relative="1" as="geometry" />
        </mxCell>
        <mxCell id="ZF5UAmcNSKmpuMnHTkLK-236" value="password" style="ellipse;whiteSpace=wrap;html=1;align=center;" vertex="1" parent="1">
          <mxGeometry x="881" y="790" width="100" height="40" as="geometry" />
        </mxCell>
        <mxCell id="ZF5UAmcNSKmpuMnHTkLK-248" value="located" style="shape=associativeEntity;whiteSpace=wrap;html=1;align=center;" vertex="1" parent="1">
          <mxGeometry x="194" y="208" width="51" height="32" as="geometry" />
        </mxCell>
        <mxCell id="ZF5UAmcNSKmpuMnHTkLK-250" value="" style="edgeStyle=orthogonalEdgeStyle;rounded=0;orthogonalLoop=1;jettySize=auto;html=1;exitX=1;exitY=0.75;exitDx=0;exitDy=0;entryX=0;entryY=0.5;entryDx=0;entryDy=0;startArrow=ERzeroToMany;startFill=0;endArrow=ERzeroToOne;endFill=0;" edge="1" parent="1" source="ZF5UAmcNSKmpuMnHTkLK-39" target="ZF5UAmcNSKmpuMnHTkLK-100">
          <mxGeometry relative="1" as="geometry">
            <mxPoint x="490" y="870" as="sourcePoint" />
            <mxPoint x="643" y="745" as="targetPoint" />
            <Array as="points">
              <mxPoint x="540" y="870" />
              <mxPoint x="540" y="864" />
              <mxPoint x="670" y="864" />
              <mxPoint x="670" y="230" />
            </Array>
          </mxGeometry>
        </mxCell>
        <mxCell id="ZF5UAmcNSKmpuMnHTkLK-251" value="records" style="shape=associativeEntity;whiteSpace=wrap;html=1;align=center;" vertex="1" parent="1">
          <mxGeometry x="264" y="84" width="51" height="32" as="geometry" />
        </mxCell>
        <mxCell id="ZF5UAmcNSKmpuMnHTkLK-253" value="pertain" style="shape=associativeEntity;whiteSpace=wrap;html=1;align=center;" vertex="1" parent="1">
          <mxGeometry x="230" y="24" width="51" height="32" as="geometry" />
        </mxCell>
        <mxCell id="ZF5UAmcNSKmpuMnHTkLK-254" value="located" style="shape=associativeEntity;whiteSpace=wrap;html=1;align=center;" vertex="1" parent="1">
          <mxGeometry x="185" y="91" width="51" height="32" as="geometry" />
        </mxCell>
        <mxCell id="ZF5UAmcNSKmpuMnHTkLK-255" value="maps" style="shape=associativeEntity;whiteSpace=wrap;html=1;align=center;" vertex="1" parent="1">
          <mxGeometry x="151" y="1214" width="51" height="32" as="geometry" />
        </mxCell>
        <mxCell id="ZF5UAmcNSKmpuMnHTkLK-256" value="attach" style="shape=associativeEntity;whiteSpace=wrap;html=1;align=center;" vertex="1" parent="1">
          <mxGeometry x="244.5" y="1154" width="51" height="32" as="geometry" />
        </mxCell>
        <mxCell id="ZF5UAmcNSKmpuMnHTkLK-257" value="cites" style="shape=associativeEntity;whiteSpace=wrap;html=1;align=center;" vertex="1" parent="1">
          <mxGeometry x="164" y="1065" width="51" height="32" as="geometry" />
        </mxCell>
        <mxCell id="ZF5UAmcNSKmpuMnHTkLK-258" value="surveys" style="shape=associativeEntity;whiteSpace=wrap;html=1;align=center;" vertex="1" parent="1">
          <mxGeometry x="184" y="714" width="51" height="32" as="geometry" />
        </mxCell>
        <mxCell id="ZF5UAmcNSKmpuMnHTkLK-259" value="located" style="shape=associativeEntity;whiteSpace=wrap;html=1;align=center;" vertex="1" parent="1">
          <mxGeometry x="225" y="819" width="51" height="32" as="geometry" />
        </mxCell>
        <mxCell id="ZF5UAmcNSKmpuMnHTkLK-260" value="recorded" style="shape=associativeEntity;whiteSpace=wrap;html=1;align=center;" vertex="1" parent="1">
          <mxGeometry x="278" y="775" width="51" height="32" as="geometry" />
        </mxCell>
        <mxCell id="ZF5UAmcNSKmpuMnHTkLK-261" value="located" style="shape=associativeEntity;whiteSpace=wrap;html=1;align=center;" vertex="1" parent="1">
          <mxGeometry x="334" y="810" width="51" height="32" as="geometry" />
        </mxCell>
        <mxCell id="ZF5UAmcNSKmpuMnHTkLK-262" value="owned" style="shape=associativeEntity;whiteSpace=wrap;html=1;align=center;" vertex="1" parent="1">
          <mxGeometry x="305" y="704" width="51" height="32" as="geometry" />
        </mxCell>
        <mxCell id="ZF5UAmcNSKmpuMnHTkLK-263" value="typolo-&lt;br&gt;gized" style="shape=associativeEntity;whiteSpace=wrap;html=1;align=center;" vertex="1" parent="1">
          <mxGeometry x="304.5" y="564" width="51" height="32" as="geometry" />
        </mxCell>
        <mxCell id="ZF5UAmcNSKmpuMnHTkLK-264" value="coded" style="shape=associativeEntity;whiteSpace=wrap;html=1;align=center;" vertex="1" parent="1">
          <mxGeometry x="335" y="475" width="51" height="32" as="geometry" />
        </mxCell>
        <mxCell id="ZF5UAmcNSKmpuMnHTkLK-266" value="located" style="shape=associativeEntity;whiteSpace=wrap;html=1;align=center;" vertex="1" parent="1">
          <mxGeometry x="439" y="644" width="51" height="32" as="geometry" />
        </mxCell>
        <mxCell id="ZF5UAmcNSKmpuMnHTkLK-268" value="affiliated" style="shape=associativeEntity;whiteSpace=wrap;html=1;align=center;" vertex="1" parent="1">
          <mxGeometry x="725" y="710" width="51" height="30" as="geometry" />
        </mxCell>
        <mxCell id="ZF5UAmcNSKmpuMnHTkLK-269" value="serves" style="shape=rhombus;perimeter=rhombusPerimeter;whiteSpace=wrap;html=1;align=center;" vertex="1" parent="1">
          <mxGeometry x="600" y="156" width="50" height="30" as="geometry" />
        </mxCell>
        <mxCell id="ZF5UAmcNSKmpuMnHTkLK-270" value="employed" style="shape=rhombus;perimeter=rhombusPerimeter;whiteSpace=wrap;html=1;align=center;" vertex="1" parent="1">
          <mxGeometry x="655" y="330" width="50" height="30" as="geometry" />
        </mxCell>
        <mxCell id="ZF5UAmcNSKmpuMnHTkLK-271" value="account" style="shape=rhombus;perimeter=rhombusPerimeter;whiteSpace=wrap;html=1;align=center;" vertex="1" parent="1">
          <mxGeometry x="810" y="635" width="50" height="30" as="geometry" />
        </mxCell>
        <mxCell id="ZF5UAmcNSKmpuMnHTkLK-272" value="affiliated" style="shape=rhombus;perimeter=rhombusPerimeter;whiteSpace=wrap;html=1;align=center;" vertex="1" parent="1">
          <mxGeometry x="610" y="795" width="50" height="30" as="geometry" />
        </mxCell>
        <mxCell id="ZF5UAmcNSKmpuMnHTkLK-273" value="depicts" style="shape=rhombus;perimeter=rhombusPerimeter;whiteSpace=wrap;html=1;align=center;" vertex="1" parent="1">
          <mxGeometry x="105" y="800" width="50" height="30" as="geometry" />
        </mxCell>
        <mxCell id="ZF5UAmcNSKmpuMnHTkLK-274" value="geo-locates" style="shape=rhombus;perimeter=rhombusPerimeter;whiteSpace=wrap;html=1;align=center;" vertex="1" parent="1">
          <mxGeometry x="95" y="420" width="50" height="30" as="geometry" />
        </mxCell>
        <mxCell id="ZF5UAmcNSKmpuMnHTkLK-275" value="pertain" style="shape=associativeEntity;whiteSpace=wrap;html=1;align=center;" vertex="1" parent="1">
          <mxGeometry x="294" y="126" width="51" height="32" as="geometry" />
        </mxCell>
        <mxCell id="ZF5UAmcNSKmpuMnHTkLK-276" value="maps" style="shape=associativeEntity;whiteSpace=wrap;html=1;align=center;" vertex="1" parent="1">
          <mxGeometry x="363" y="194" width="51" height="32" as="geometry" />
        </mxCell>
        <mxCell id="ZF5UAmcNSKmpuMnHTkLK-277" value="usgs_quad_id" style="ellipse;whiteSpace=wrap;html=1;align=center;fontStyle=4;" vertex="1" parent="1">
          <mxGeometry x="560" y="190" width="100" height="40" as="geometry" />
        </mxCell>
        <mxCell id="ZF5UAmcNSKmpuMnHTkLK-278" value="usgs_quad_name" style="ellipse;whiteSpace=wrap;html=1;align=center;" vertex="1" parent="1">
          <mxGeometry x="560" y="240" width="100" height="40" as="geometry" />
        </mxCell>
        <mxCell id="ZF5UAmcNSKmpuMnHTkLK-279" style="edgeStyle=orthogonalEdgeStyle;rounded=0;orthogonalLoop=1;jettySize=auto;html=1;exitX=0;exitY=0.5;exitDx=0;exitDy=0;entryX=1;entryY=0.5;entryDx=0;entryDy=0;endArrow=none;endFill=0;" edge="1" parent="1" source="ZF5UAmcNSKmpuMnHTkLK-277" target="ZF5UAmcNSKmpuMnHTkLK-19">
          <mxGeometry relative="1" as="geometry">
            <mxPoint x="560" y="360" as="targetPoint" />
            <Array as="points">
              <mxPoint x="550" y="210" />
              <mxPoint x="550" y="210" />
            </Array>
          </mxGeometry>
        </mxCell>
        <mxCell id="ZF5UAmcNSKmpuMnHTkLK-280" style="edgeStyle=orthogonalEdgeStyle;rounded=0;orthogonalLoop=1;jettySize=auto;html=1;exitX=0;exitY=0.5;exitDx=0;exitDy=0;entryX=1;entryY=0.5;entryDx=0;entryDy=0;endArrow=none;endFill=0;" edge="1" parent="1" source="ZF5UAmcNSKmpuMnHTkLK-282" target="ZF5UAmcNSKmpuMnHTkLK-19">
          <mxGeometry relative="1" as="geometry">
            <mxPoint x="560" y="360" as="targetPoint" />
            <Array as="points">
              <mxPoint x="550" y="310" />
              <mxPoint x="550" y="210" />
            </Array>
            <mxPoint x="560" y="310" as="sourcePoint" />
          </mxGeometry>
        </mxCell>
        <mxCell id="ZF5UAmcNSKmpuMnHTkLK-281" style="edgeStyle=orthogonalEdgeStyle;rounded=0;orthogonalLoop=1;jettySize=auto;html=1;exitX=0;exitY=0.5;exitDx=0;exitDy=0;endArrow=none;endFill=0;entryX=1;entryY=0.5;entryDx=0;entryDy=0;" edge="1" parent="1" source="ZF5UAmcNSKmpuMnHTkLK-278" target="ZF5UAmcNSKmpuMnHTkLK-19">
          <mxGeometry relative="1" as="geometry">
            <mxPoint x="560" y="360" as="targetPoint" />
            <Array as="points">
              <mxPoint x="550" y="260" />
              <mxPoint x="550" y="210" />
            </Array>
          </mxGeometry>
        </mxCell>
        <mxCell id="ZF5UAmcNSKmpuMnHTkLK-282" value="&lt;span style=&quot;border-bottom: 1px dotted&quot;&gt;site_record&lt;/span&gt;" style="ellipse;whiteSpace=wrap;html=1;align=center;" vertex="1" parent="1">
          <mxGeometry x="560" y="290" width="100" height="40" as="geometry" />
        </mxCell>
        <mxCell id="ZF5UAmcNSKmpuMnHTkLK-283" style="edgeStyle=orthogonalEdgeStyle;rounded=0;orthogonalLoop=1;jettySize=auto;html=1;exitX=0;exitY=0.5;exitDx=0;exitDy=0;endArrow=none;endFill=0;entryX=1;entryY=0.5;entryDx=0;entryDy=0;" edge="1" parent="1" source="ZF5UAmcNSKmpuMnHTkLK-284" target="ZF5UAmcNSKmpuMnHTkLK-54">
          <mxGeometry relative="1" as="geometry">
            <mxPoint x="480" y="1170" as="targetPoint" />
          </mxGeometry>
        </mxCell>
        <mxCell id="ZF5UAmcNSKmpuMnHTkLK-284" value="attachment_id" style="ellipse;whiteSpace=wrap;html=1;align=center;fontStyle=4;" vertex="1" parent="1">
          <mxGeometry x="540" y="1150" width="100" height="40" as="geometry" />
        </mxCell>
        <mxCell id="ZF5UAmcNSKmpuMnHTkLK-285" style="edgeStyle=orthogonalEdgeStyle;rounded=0;orthogonalLoop=1;jettySize=auto;html=1;entryX=1;entryY=0.5;entryDx=0;entryDy=0;endArrow=none;endFill=0;exitX=0;exitY=0.5;exitDx=0;exitDy=0;exitPerimeter=0;" edge="1" parent="1" source="ZF5UAmcNSKmpuMnHTkLK-286" target="ZF5UAmcNSKmpuMnHTkLK-54">
          <mxGeometry relative="1" as="geometry">
            <mxPoint x="480" y="1170" as="targetPoint" />
          </mxGeometry>
        </mxCell>
        <mxCell id="ZF5UAmcNSKmpuMnHTkLK-286" value="attachment_type" style="ellipse;whiteSpace=wrap;html=1;align=center;" vertex="1" parent="1">
          <mxGeometry x="540" y="1200" width="100" height="40" as="geometry" />
        </mxCell>
        <mxCell id="ZF5UAmcNSKmpuMnHTkLK-287" style="edgeStyle=orthogonalEdgeStyle;rounded=0;orthogonalLoop=1;jettySize=auto;html=1;exitX=0;exitY=0.5;exitDx=0;exitDy=0;endArrow=none;endFill=0;entryX=1;entryY=0.5;entryDx=0;entryDy=0;" edge="1" parent="1" source="ZF5UAmcNSKmpuMnHTkLK-288" target="ZF5UAmcNSKmpuMnHTkLK-54">
          <mxGeometry relative="1" as="geometry">
            <mxPoint x="490" y="1190" as="targetPoint" />
          </mxGeometry>
        </mxCell>
        <mxCell id="ZF5UAmcNSKmpuMnHTkLK-288" value="&lt;span style=&quot;border-bottom: 1px dotted&quot;&gt;site_record&lt;/span&gt;" style="ellipse;whiteSpace=wrap;html=1;align=center;" vertex="1" parent="1">
          <mxGeometry x="540" y="1250" width="100" height="40" as="geometry" />
        </mxCell>
        <mxCell id="ZF5UAmcNSKmpuMnHTkLK-290" style="edgeStyle=orthogonalEdgeStyle;rounded=0;orthogonalLoop=1;jettySize=auto;html=1;exitX=1;exitY=0.5;exitDx=0;exitDy=0;entryX=0.25;entryY=1;entryDx=0;entryDy=0;endArrow=none;endFill=0;" edge="1" parent="1" source="ZF5UAmcNSKmpuMnHTkLK-289" target="ZF5UAmcNSKmpuMnHTkLK-7">
          <mxGeometry relative="1" as="geometry" />
        </mxCell>
        <mxCell id="ZF5UAmcNSKmpuMnHTkLK-289" value="date_entered" style="ellipse;whiteSpace=wrap;html=1;align=center;" vertex="1" parent="1">
          <mxGeometry x="5" y="70" width="100" height="40" as="geometry" />
        </mxCell>
        <mxCell id="ZF5UAmcNSKmpuMnHTkLK-292" style="edgeStyle=orthogonalEdgeStyle;rounded=0;orthogonalLoop=1;jettySize=auto;html=1;exitX=1;exitY=0.5;exitDx=0;exitDy=0;entryX=0.25;entryY=1;entryDx=0;entryDy=0;endArrow=none;endFill=0;" edge="1" parent="1" source="ZF5UAmcNSKmpuMnHTkLK-291" target="ZF5UAmcNSKmpuMnHTkLK-7">
          <mxGeometry relative="1" as="geometry" />
        </mxCell>
        <mxCell id="ZF5UAmcNSKmpuMnHTkLK-291" value="date_updated" style="ellipse;whiteSpace=wrap;html=1;align=center;" vertex="1" parent="1">
          <mxGeometry x="5" y="120" width="100" height="40" as="geometry" />
        </mxCell>
        <mxCell id="ZF5UAmcNSKmpuMnHTkLK-293" value="located" style="shape=rhombus;perimeter=rhombusPerimeter;whiteSpace=wrap;html=1;align=center;" vertex="1" parent="1">
          <mxGeometry x="645" y="689" width="50" height="30" as="geometry" />
        </mxCell>
      </root>
    </mxGraphModel>
  </diagram>
</mxfile>
